%TF.GenerationSoftware,KiCad,Pcbnew,10.0.3*%
%TF.CreationDate,2026-06-20T10:20:26+02:00*%
%TF.ProjectId,esp32audio,65737033-3261-4756-9469-6f2e6b696361,rev?*%
%TF.SameCoordinates,Original*%
%TF.FileFunction,Legend,Bot*%
%TF.FilePolarity,Positive*%
%FSLAX46Y46*%
G04 Gerber Fmt 4.6, Leading zero omitted, Abs format (unit mm)*
G04 Created by KiCad (PCBNEW 10.0.3) date 2026-06-20 10:20:26*
%MOMM*%
%LPD*%
G01*
G04 APERTURE LIST*
%ADD10C,0.100000*%
%ADD11C,0.150000*%
%ADD12C,0.120000*%
G04 APERTURE END LIST*
D10*
X29291353Y-18431881D02*
X29291353Y-17831881D01*
X29291353Y-17831881D02*
X29148496Y-17831881D01*
X29148496Y-17831881D02*
X29062782Y-17860452D01*
X29062782Y-17860452D02*
X29005639Y-17917595D01*
X29005639Y-17917595D02*
X28977068Y-17974738D01*
X28977068Y-17974738D02*
X28948496Y-18089024D01*
X28948496Y-18089024D02*
X28948496Y-18174738D01*
X28948496Y-18174738D02*
X28977068Y-18289024D01*
X28977068Y-18289024D02*
X29005639Y-18346167D01*
X29005639Y-18346167D02*
X29062782Y-18403310D01*
X29062782Y-18403310D02*
X29148496Y-18431881D01*
X29148496Y-18431881D02*
X29291353Y-18431881D01*
X28577068Y-17831881D02*
X28519925Y-17831881D01*
X28519925Y-17831881D02*
X28462782Y-17860452D01*
X28462782Y-17860452D02*
X28434211Y-17889024D01*
X28434211Y-17889024D02*
X28405639Y-17946167D01*
X28405639Y-17946167D02*
X28377068Y-18060452D01*
X28377068Y-18060452D02*
X28377068Y-18203310D01*
X28377068Y-18203310D02*
X28405639Y-18317595D01*
X28405639Y-18317595D02*
X28434211Y-18374738D01*
X28434211Y-18374738D02*
X28462782Y-18403310D01*
X28462782Y-18403310D02*
X28519925Y-18431881D01*
X28519925Y-18431881D02*
X28577068Y-18431881D01*
X28577068Y-18431881D02*
X28634211Y-18403310D01*
X28634211Y-18403310D02*
X28662782Y-18374738D01*
X28662782Y-18374738D02*
X28691353Y-18317595D01*
X28691353Y-18317595D02*
X28719925Y-18203310D01*
X28719925Y-18203310D02*
X28719925Y-18060452D01*
X28719925Y-18060452D02*
X28691353Y-17946167D01*
X28691353Y-17946167D02*
X28662782Y-17889024D01*
X28662782Y-17889024D02*
X28634211Y-17860452D01*
X28634211Y-17860452D02*
X28577068Y-17831881D01*
X29291353Y-21329779D02*
X29291353Y-20729779D01*
X29291353Y-20729779D02*
X29148496Y-20729779D01*
X29148496Y-20729779D02*
X29062782Y-20758350D01*
X29062782Y-20758350D02*
X29005639Y-20815493D01*
X29005639Y-20815493D02*
X28977068Y-20872636D01*
X28977068Y-20872636D02*
X28948496Y-20986922D01*
X28948496Y-20986922D02*
X28948496Y-21072636D01*
X28948496Y-21072636D02*
X28977068Y-21186922D01*
X28977068Y-21186922D02*
X29005639Y-21244065D01*
X29005639Y-21244065D02*
X29062782Y-21301208D01*
X29062782Y-21301208D02*
X29148496Y-21329779D01*
X29148496Y-21329779D02*
X29291353Y-21329779D01*
X28377068Y-21329779D02*
X28719925Y-21329779D01*
X28548496Y-21329779D02*
X28548496Y-20729779D01*
X28548496Y-20729779D02*
X28605639Y-20815493D01*
X28605639Y-20815493D02*
X28662782Y-20872636D01*
X28662782Y-20872636D02*
X28719925Y-20901208D01*
X29291353Y-24227677D02*
X29291353Y-23627677D01*
X29291353Y-23627677D02*
X29148496Y-23627677D01*
X29148496Y-23627677D02*
X29062782Y-23656248D01*
X29062782Y-23656248D02*
X29005639Y-23713391D01*
X29005639Y-23713391D02*
X28977068Y-23770534D01*
X28977068Y-23770534D02*
X28948496Y-23884820D01*
X28948496Y-23884820D02*
X28948496Y-23970534D01*
X28948496Y-23970534D02*
X28977068Y-24084820D01*
X28977068Y-24084820D02*
X29005639Y-24141963D01*
X29005639Y-24141963D02*
X29062782Y-24199106D01*
X29062782Y-24199106D02*
X29148496Y-24227677D01*
X29148496Y-24227677D02*
X29291353Y-24227677D01*
X28434211Y-23627677D02*
X28548496Y-23627677D01*
X28548496Y-23627677D02*
X28605639Y-23656248D01*
X28605639Y-23656248D02*
X28634211Y-23684820D01*
X28634211Y-23684820D02*
X28691353Y-23770534D01*
X28691353Y-23770534D02*
X28719925Y-23884820D01*
X28719925Y-23884820D02*
X28719925Y-24113391D01*
X28719925Y-24113391D02*
X28691353Y-24170534D01*
X28691353Y-24170534D02*
X28662782Y-24199106D01*
X28662782Y-24199106D02*
X28605639Y-24227677D01*
X28605639Y-24227677D02*
X28491353Y-24227677D01*
X28491353Y-24227677D02*
X28434211Y-24199106D01*
X28434211Y-24199106D02*
X28405639Y-24170534D01*
X28405639Y-24170534D02*
X28377068Y-24113391D01*
X28377068Y-24113391D02*
X28377068Y-23970534D01*
X28377068Y-23970534D02*
X28405639Y-23913391D01*
X28405639Y-23913391D02*
X28434211Y-23884820D01*
X28434211Y-23884820D02*
X28491353Y-23856248D01*
X28491353Y-23856248D02*
X28605639Y-23856248D01*
X28605639Y-23856248D02*
X28662782Y-23884820D01*
X28662782Y-23884820D02*
X28691353Y-23913391D01*
X28691353Y-23913391D02*
X28719925Y-23970534D01*
X28977068Y-26554146D02*
X29034211Y-26525575D01*
X29034211Y-26525575D02*
X29119925Y-26525575D01*
X29119925Y-26525575D02*
X29205639Y-26554146D01*
X29205639Y-26554146D02*
X29262782Y-26611289D01*
X29262782Y-26611289D02*
X29291353Y-26668432D01*
X29291353Y-26668432D02*
X29319925Y-26782718D01*
X29319925Y-26782718D02*
X29319925Y-26868432D01*
X29319925Y-26868432D02*
X29291353Y-26982718D01*
X29291353Y-26982718D02*
X29262782Y-27039861D01*
X29262782Y-27039861D02*
X29205639Y-27097004D01*
X29205639Y-27097004D02*
X29119925Y-27125575D01*
X29119925Y-27125575D02*
X29062782Y-27125575D01*
X29062782Y-27125575D02*
X28977068Y-27097004D01*
X28977068Y-27097004D02*
X28948496Y-27068432D01*
X28948496Y-27068432D02*
X28948496Y-26868432D01*
X28948496Y-26868432D02*
X29062782Y-26868432D01*
X28691353Y-27125575D02*
X28691353Y-26525575D01*
X28691353Y-26525575D02*
X28348496Y-27125575D01*
X28348496Y-27125575D02*
X28348496Y-26525575D01*
X28062782Y-27125575D02*
X28062782Y-26525575D01*
X28062782Y-26525575D02*
X27919925Y-26525575D01*
X27919925Y-26525575D02*
X27834211Y-26554146D01*
X27834211Y-26554146D02*
X27777068Y-26611289D01*
X27777068Y-26611289D02*
X27748497Y-26668432D01*
X27748497Y-26668432D02*
X27719925Y-26782718D01*
X27719925Y-26782718D02*
X27719925Y-26868432D01*
X27719925Y-26868432D02*
X27748497Y-26982718D01*
X27748497Y-26982718D02*
X27777068Y-27039861D01*
X27777068Y-27039861D02*
X27834211Y-27097004D01*
X27834211Y-27097004D02*
X27919925Y-27125575D01*
X27919925Y-27125575D02*
X28062782Y-27125575D01*
X29348496Y-29423473D02*
X28977068Y-29423473D01*
X28977068Y-29423473D02*
X29177068Y-29652044D01*
X29177068Y-29652044D02*
X29091353Y-29652044D01*
X29091353Y-29652044D02*
X29034211Y-29680616D01*
X29034211Y-29680616D02*
X29005639Y-29709187D01*
X29005639Y-29709187D02*
X28977068Y-29766330D01*
X28977068Y-29766330D02*
X28977068Y-29909187D01*
X28977068Y-29909187D02*
X29005639Y-29966330D01*
X29005639Y-29966330D02*
X29034211Y-29994902D01*
X29034211Y-29994902D02*
X29091353Y-30023473D01*
X29091353Y-30023473D02*
X29262782Y-30023473D01*
X29262782Y-30023473D02*
X29319925Y-29994902D01*
X29319925Y-29994902D02*
X29348496Y-29966330D01*
X28777067Y-29623473D02*
X28634210Y-30023473D01*
X28634210Y-30023473D02*
X28491353Y-29623473D01*
X28319924Y-29423473D02*
X27948496Y-29423473D01*
X27948496Y-29423473D02*
X28148496Y-29652044D01*
X28148496Y-29652044D02*
X28062781Y-29652044D01*
X28062781Y-29652044D02*
X28005639Y-29680616D01*
X28005639Y-29680616D02*
X27977067Y-29709187D01*
X27977067Y-29709187D02*
X27948496Y-29766330D01*
X27948496Y-29766330D02*
X27948496Y-29909187D01*
X27948496Y-29909187D02*
X27977067Y-29966330D01*
X27977067Y-29966330D02*
X28005639Y-29994902D01*
X28005639Y-29994902D02*
X28062781Y-30023473D01*
X28062781Y-30023473D02*
X28234210Y-30023473D01*
X28234210Y-30023473D02*
X28291353Y-29994902D01*
X28291353Y-29994902D02*
X28319924Y-29966330D01*
X29291353Y-32921371D02*
X29291353Y-32321371D01*
X29291353Y-32321371D02*
X29148496Y-32321371D01*
X29148496Y-32321371D02*
X29062782Y-32349942D01*
X29062782Y-32349942D02*
X29005639Y-32407085D01*
X29005639Y-32407085D02*
X28977068Y-32464228D01*
X28977068Y-32464228D02*
X28948496Y-32578514D01*
X28948496Y-32578514D02*
X28948496Y-32664228D01*
X28948496Y-32664228D02*
X28977068Y-32778514D01*
X28977068Y-32778514D02*
X29005639Y-32835657D01*
X29005639Y-32835657D02*
X29062782Y-32892800D01*
X29062782Y-32892800D02*
X29148496Y-32921371D01*
X29148496Y-32921371D02*
X29291353Y-32921371D01*
X28405639Y-32321371D02*
X28691353Y-32321371D01*
X28691353Y-32321371D02*
X28719925Y-32607085D01*
X28719925Y-32607085D02*
X28691353Y-32578514D01*
X28691353Y-32578514D02*
X28634211Y-32549942D01*
X28634211Y-32549942D02*
X28491353Y-32549942D01*
X28491353Y-32549942D02*
X28434211Y-32578514D01*
X28434211Y-32578514D02*
X28405639Y-32607085D01*
X28405639Y-32607085D02*
X28377068Y-32664228D01*
X28377068Y-32664228D02*
X28377068Y-32807085D01*
X28377068Y-32807085D02*
X28405639Y-32864228D01*
X28405639Y-32864228D02*
X28434211Y-32892800D01*
X28434211Y-32892800D02*
X28491353Y-32921371D01*
X28491353Y-32921371D02*
X28634211Y-32921371D01*
X28634211Y-32921371D02*
X28691353Y-32892800D01*
X28691353Y-32892800D02*
X28719925Y-32864228D01*
D11*
X46666666Y-27359580D02*
X46714285Y-27407200D01*
X46714285Y-27407200D02*
X46857142Y-27454819D01*
X46857142Y-27454819D02*
X46952380Y-27454819D01*
X46952380Y-27454819D02*
X47095237Y-27407200D01*
X47095237Y-27407200D02*
X47190475Y-27311961D01*
X47190475Y-27311961D02*
X47238094Y-27216723D01*
X47238094Y-27216723D02*
X47285713Y-27026247D01*
X47285713Y-27026247D02*
X47285713Y-26883390D01*
X47285713Y-26883390D02*
X47238094Y-26692914D01*
X47238094Y-26692914D02*
X47190475Y-26597676D01*
X47190475Y-26597676D02*
X47095237Y-26502438D01*
X47095237Y-26502438D02*
X46952380Y-26454819D01*
X46952380Y-26454819D02*
X46857142Y-26454819D01*
X46857142Y-26454819D02*
X46714285Y-26502438D01*
X46714285Y-26502438D02*
X46666666Y-26550057D01*
X46190475Y-27454819D02*
X45999999Y-27454819D01*
X45999999Y-27454819D02*
X45904761Y-27407200D01*
X45904761Y-27407200D02*
X45857142Y-27359580D01*
X45857142Y-27359580D02*
X45761904Y-27216723D01*
X45761904Y-27216723D02*
X45714285Y-27026247D01*
X45714285Y-27026247D02*
X45714285Y-26645295D01*
X45714285Y-26645295D02*
X45761904Y-26550057D01*
X45761904Y-26550057D02*
X45809523Y-26502438D01*
X45809523Y-26502438D02*
X45904761Y-26454819D01*
X45904761Y-26454819D02*
X46095237Y-26454819D01*
X46095237Y-26454819D02*
X46190475Y-26502438D01*
X46190475Y-26502438D02*
X46238094Y-26550057D01*
X46238094Y-26550057D02*
X46285713Y-26645295D01*
X46285713Y-26645295D02*
X46285713Y-26883390D01*
X46285713Y-26883390D02*
X46238094Y-26978628D01*
X46238094Y-26978628D02*
X46190475Y-27026247D01*
X46190475Y-27026247D02*
X46095237Y-27073866D01*
X46095237Y-27073866D02*
X45904761Y-27073866D01*
X45904761Y-27073866D02*
X45809523Y-27026247D01*
X45809523Y-27026247D02*
X45761904Y-26978628D01*
X45761904Y-26978628D02*
X45714285Y-26883390D01*
X47666666Y-33359580D02*
X47714285Y-33407200D01*
X47714285Y-33407200D02*
X47857142Y-33454819D01*
X47857142Y-33454819D02*
X47952380Y-33454819D01*
X47952380Y-33454819D02*
X48095237Y-33407200D01*
X48095237Y-33407200D02*
X48190475Y-33311961D01*
X48190475Y-33311961D02*
X48238094Y-33216723D01*
X48238094Y-33216723D02*
X48285713Y-33026247D01*
X48285713Y-33026247D02*
X48285713Y-32883390D01*
X48285713Y-32883390D02*
X48238094Y-32692914D01*
X48238094Y-32692914D02*
X48190475Y-32597676D01*
X48190475Y-32597676D02*
X48095237Y-32502438D01*
X48095237Y-32502438D02*
X47952380Y-32454819D01*
X47952380Y-32454819D02*
X47857142Y-32454819D01*
X47857142Y-32454819D02*
X47714285Y-32502438D01*
X47714285Y-32502438D02*
X47666666Y-32550057D01*
X46761904Y-32454819D02*
X47238094Y-32454819D01*
X47238094Y-32454819D02*
X47285713Y-32931009D01*
X47285713Y-32931009D02*
X47238094Y-32883390D01*
X47238094Y-32883390D02*
X47142856Y-32835771D01*
X47142856Y-32835771D02*
X46904761Y-32835771D01*
X46904761Y-32835771D02*
X46809523Y-32883390D01*
X46809523Y-32883390D02*
X46761904Y-32931009D01*
X46761904Y-32931009D02*
X46714285Y-33026247D01*
X46714285Y-33026247D02*
X46714285Y-33264342D01*
X46714285Y-33264342D02*
X46761904Y-33359580D01*
X46761904Y-33359580D02*
X46809523Y-33407200D01*
X46809523Y-33407200D02*
X46904761Y-33454819D01*
X46904761Y-33454819D02*
X47142856Y-33454819D01*
X47142856Y-33454819D02*
X47238094Y-33407200D01*
X47238094Y-33407200D02*
X47285713Y-33359580D01*
X74071428Y-17981009D02*
X74404761Y-17981009D01*
X74404761Y-18504819D02*
X74404761Y-17504819D01*
X74404761Y-17504819D02*
X73928571Y-17504819D01*
X73547618Y-18504819D02*
X73547618Y-17504819D01*
X73071428Y-18504819D02*
X73071428Y-17504819D01*
X73071428Y-17504819D02*
X72833333Y-17504819D01*
X72833333Y-17504819D02*
X72690476Y-17552438D01*
X72690476Y-17552438D02*
X72595238Y-17647676D01*
X72595238Y-17647676D02*
X72547619Y-17742914D01*
X72547619Y-17742914D02*
X72500000Y-17933390D01*
X72500000Y-17933390D02*
X72500000Y-18076247D01*
X72500000Y-18076247D02*
X72547619Y-18266723D01*
X72547619Y-18266723D02*
X72595238Y-18361961D01*
X72595238Y-18361961D02*
X72690476Y-18457200D01*
X72690476Y-18457200D02*
X72833333Y-18504819D01*
X72833333Y-18504819D02*
X73071428Y-18504819D01*
X72119047Y-17600057D02*
X72071428Y-17552438D01*
X72071428Y-17552438D02*
X71976190Y-17504819D01*
X71976190Y-17504819D02*
X71738095Y-17504819D01*
X71738095Y-17504819D02*
X71642857Y-17552438D01*
X71642857Y-17552438D02*
X71595238Y-17600057D01*
X71595238Y-17600057D02*
X71547619Y-17695295D01*
X71547619Y-17695295D02*
X71547619Y-17790533D01*
X71547619Y-17790533D02*
X71595238Y-17933390D01*
X71595238Y-17933390D02*
X72166666Y-18504819D01*
X72166666Y-18504819D02*
X71547619Y-18504819D01*
X72454819Y-35833333D02*
X71978628Y-35500000D01*
X72454819Y-35261905D02*
X71454819Y-35261905D01*
X71454819Y-35261905D02*
X71454819Y-35642857D01*
X71454819Y-35642857D02*
X71502438Y-35738095D01*
X71502438Y-35738095D02*
X71550057Y-35785714D01*
X71550057Y-35785714D02*
X71645295Y-35833333D01*
X71645295Y-35833333D02*
X71788152Y-35833333D01*
X71788152Y-35833333D02*
X71883390Y-35785714D01*
X71883390Y-35785714D02*
X71931009Y-35738095D01*
X71931009Y-35738095D02*
X71978628Y-35642857D01*
X71978628Y-35642857D02*
X71978628Y-35261905D01*
X71550057Y-36214286D02*
X71502438Y-36261905D01*
X71502438Y-36261905D02*
X71454819Y-36357143D01*
X71454819Y-36357143D02*
X71454819Y-36595238D01*
X71454819Y-36595238D02*
X71502438Y-36690476D01*
X71502438Y-36690476D02*
X71550057Y-36738095D01*
X71550057Y-36738095D02*
X71645295Y-36785714D01*
X71645295Y-36785714D02*
X71740533Y-36785714D01*
X71740533Y-36785714D02*
X71883390Y-36738095D01*
X71883390Y-36738095D02*
X72454819Y-36166667D01*
X72454819Y-36166667D02*
X72454819Y-36785714D01*
X74071428Y-40981009D02*
X74404761Y-40981009D01*
X74404761Y-41504819D02*
X74404761Y-40504819D01*
X74404761Y-40504819D02*
X73928571Y-40504819D01*
X73547618Y-41504819D02*
X73547618Y-40504819D01*
X73071428Y-41504819D02*
X73071428Y-40504819D01*
X73071428Y-40504819D02*
X72833333Y-40504819D01*
X72833333Y-40504819D02*
X72690476Y-40552438D01*
X72690476Y-40552438D02*
X72595238Y-40647676D01*
X72595238Y-40647676D02*
X72547619Y-40742914D01*
X72547619Y-40742914D02*
X72500000Y-40933390D01*
X72500000Y-40933390D02*
X72500000Y-41076247D01*
X72500000Y-41076247D02*
X72547619Y-41266723D01*
X72547619Y-41266723D02*
X72595238Y-41361961D01*
X72595238Y-41361961D02*
X72690476Y-41457200D01*
X72690476Y-41457200D02*
X72833333Y-41504819D01*
X72833333Y-41504819D02*
X73071428Y-41504819D01*
X72166666Y-40504819D02*
X71547619Y-40504819D01*
X71547619Y-40504819D02*
X71880952Y-40885771D01*
X71880952Y-40885771D02*
X71738095Y-40885771D01*
X71738095Y-40885771D02*
X71642857Y-40933390D01*
X71642857Y-40933390D02*
X71595238Y-40981009D01*
X71595238Y-40981009D02*
X71547619Y-41076247D01*
X71547619Y-41076247D02*
X71547619Y-41314342D01*
X71547619Y-41314342D02*
X71595238Y-41409580D01*
X71595238Y-41409580D02*
X71642857Y-41457200D01*
X71642857Y-41457200D02*
X71738095Y-41504819D01*
X71738095Y-41504819D02*
X72023809Y-41504819D01*
X72023809Y-41504819D02*
X72119047Y-41457200D01*
X72119047Y-41457200D02*
X72166666Y-41409580D01*
X33454819Y-32333333D02*
X32978628Y-32000000D01*
X33454819Y-31761905D02*
X32454819Y-31761905D01*
X32454819Y-31761905D02*
X32454819Y-32142857D01*
X32454819Y-32142857D02*
X32502438Y-32238095D01*
X32502438Y-32238095D02*
X32550057Y-32285714D01*
X32550057Y-32285714D02*
X32645295Y-32333333D01*
X32645295Y-32333333D02*
X32788152Y-32333333D01*
X32788152Y-32333333D02*
X32883390Y-32285714D01*
X32883390Y-32285714D02*
X32931009Y-32238095D01*
X32931009Y-32238095D02*
X32978628Y-32142857D01*
X32978628Y-32142857D02*
X32978628Y-31761905D01*
X33454819Y-32809524D02*
X33454819Y-33000000D01*
X33454819Y-33000000D02*
X33407200Y-33095238D01*
X33407200Y-33095238D02*
X33359580Y-33142857D01*
X33359580Y-33142857D02*
X33216723Y-33238095D01*
X33216723Y-33238095D02*
X33026247Y-33285714D01*
X33026247Y-33285714D02*
X32645295Y-33285714D01*
X32645295Y-33285714D02*
X32550057Y-33238095D01*
X32550057Y-33238095D02*
X32502438Y-33190476D01*
X32502438Y-33190476D02*
X32454819Y-33095238D01*
X32454819Y-33095238D02*
X32454819Y-32904762D01*
X32454819Y-32904762D02*
X32502438Y-32809524D01*
X32502438Y-32809524D02*
X32550057Y-32761905D01*
X32550057Y-32761905D02*
X32645295Y-32714286D01*
X32645295Y-32714286D02*
X32883390Y-32714286D01*
X32883390Y-32714286D02*
X32978628Y-32761905D01*
X32978628Y-32761905D02*
X33026247Y-32809524D01*
X33026247Y-32809524D02*
X33073866Y-32904762D01*
X33073866Y-32904762D02*
X33073866Y-33095238D01*
X33073866Y-33095238D02*
X33026247Y-33190476D01*
X33026247Y-33190476D02*
X32978628Y-33238095D01*
X32978628Y-33238095D02*
X32883390Y-33285714D01*
X46642857Y-17859580D02*
X46690476Y-17907200D01*
X46690476Y-17907200D02*
X46833333Y-17954819D01*
X46833333Y-17954819D02*
X46928571Y-17954819D01*
X46928571Y-17954819D02*
X47071428Y-17907200D01*
X47071428Y-17907200D02*
X47166666Y-17811961D01*
X47166666Y-17811961D02*
X47214285Y-17716723D01*
X47214285Y-17716723D02*
X47261904Y-17526247D01*
X47261904Y-17526247D02*
X47261904Y-17383390D01*
X47261904Y-17383390D02*
X47214285Y-17192914D01*
X47214285Y-17192914D02*
X47166666Y-17097676D01*
X47166666Y-17097676D02*
X47071428Y-17002438D01*
X47071428Y-17002438D02*
X46928571Y-16954819D01*
X46928571Y-16954819D02*
X46833333Y-16954819D01*
X46833333Y-16954819D02*
X46690476Y-17002438D01*
X46690476Y-17002438D02*
X46642857Y-17050057D01*
X45690476Y-17954819D02*
X46261904Y-17954819D01*
X45976190Y-17954819D02*
X45976190Y-16954819D01*
X45976190Y-16954819D02*
X46071428Y-17097676D01*
X46071428Y-17097676D02*
X46166666Y-17192914D01*
X46166666Y-17192914D02*
X46261904Y-17240533D01*
X45071428Y-16954819D02*
X44976190Y-16954819D01*
X44976190Y-16954819D02*
X44880952Y-17002438D01*
X44880952Y-17002438D02*
X44833333Y-17050057D01*
X44833333Y-17050057D02*
X44785714Y-17145295D01*
X44785714Y-17145295D02*
X44738095Y-17335771D01*
X44738095Y-17335771D02*
X44738095Y-17573866D01*
X44738095Y-17573866D02*
X44785714Y-17764342D01*
X44785714Y-17764342D02*
X44833333Y-17859580D01*
X44833333Y-17859580D02*
X44880952Y-17907200D01*
X44880952Y-17907200D02*
X44976190Y-17954819D01*
X44976190Y-17954819D02*
X45071428Y-17954819D01*
X45071428Y-17954819D02*
X45166666Y-17907200D01*
X45166666Y-17907200D02*
X45214285Y-17859580D01*
X45214285Y-17859580D02*
X45261904Y-17764342D01*
X45261904Y-17764342D02*
X45309523Y-17573866D01*
X45309523Y-17573866D02*
X45309523Y-17335771D01*
X45309523Y-17335771D02*
X45261904Y-17145295D01*
X45261904Y-17145295D02*
X45214285Y-17050057D01*
X45214285Y-17050057D02*
X45166666Y-17002438D01*
X45166666Y-17002438D02*
X45071428Y-16954819D01*
X40454819Y-32357142D02*
X39978628Y-32023809D01*
X40454819Y-31785714D02*
X39454819Y-31785714D01*
X39454819Y-31785714D02*
X39454819Y-32166666D01*
X39454819Y-32166666D02*
X39502438Y-32261904D01*
X39502438Y-32261904D02*
X39550057Y-32309523D01*
X39550057Y-32309523D02*
X39645295Y-32357142D01*
X39645295Y-32357142D02*
X39788152Y-32357142D01*
X39788152Y-32357142D02*
X39883390Y-32309523D01*
X39883390Y-32309523D02*
X39931009Y-32261904D01*
X39931009Y-32261904D02*
X39978628Y-32166666D01*
X39978628Y-32166666D02*
X39978628Y-31785714D01*
X40454819Y-33309523D02*
X40454819Y-32738095D01*
X40454819Y-33023809D02*
X39454819Y-33023809D01*
X39454819Y-33023809D02*
X39597676Y-32928571D01*
X39597676Y-32928571D02*
X39692914Y-32833333D01*
X39692914Y-32833333D02*
X39740533Y-32738095D01*
X39454819Y-33642857D02*
X39454819Y-34261904D01*
X39454819Y-34261904D02*
X39835771Y-33928571D01*
X39835771Y-33928571D02*
X39835771Y-34071428D01*
X39835771Y-34071428D02*
X39883390Y-34166666D01*
X39883390Y-34166666D02*
X39931009Y-34214285D01*
X39931009Y-34214285D02*
X40026247Y-34261904D01*
X40026247Y-34261904D02*
X40264342Y-34261904D01*
X40264342Y-34261904D02*
X40359580Y-34214285D01*
X40359580Y-34214285D02*
X40407200Y-34166666D01*
X40407200Y-34166666D02*
X40454819Y-34071428D01*
X40454819Y-34071428D02*
X40454819Y-33785714D01*
X40454819Y-33785714D02*
X40407200Y-33690476D01*
X40407200Y-33690476D02*
X40359580Y-33642857D01*
X36454819Y-31857142D02*
X35978628Y-31523809D01*
X36454819Y-31285714D02*
X35454819Y-31285714D01*
X35454819Y-31285714D02*
X35454819Y-31666666D01*
X35454819Y-31666666D02*
X35502438Y-31761904D01*
X35502438Y-31761904D02*
X35550057Y-31809523D01*
X35550057Y-31809523D02*
X35645295Y-31857142D01*
X35645295Y-31857142D02*
X35788152Y-31857142D01*
X35788152Y-31857142D02*
X35883390Y-31809523D01*
X35883390Y-31809523D02*
X35931009Y-31761904D01*
X35931009Y-31761904D02*
X35978628Y-31666666D01*
X35978628Y-31666666D02*
X35978628Y-31285714D01*
X36454819Y-32809523D02*
X36454819Y-32238095D01*
X36454819Y-32523809D02*
X35454819Y-32523809D01*
X35454819Y-32523809D02*
X35597676Y-32428571D01*
X35597676Y-32428571D02*
X35692914Y-32333333D01*
X35692914Y-32333333D02*
X35740533Y-32238095D01*
X35550057Y-33190476D02*
X35502438Y-33238095D01*
X35502438Y-33238095D02*
X35454819Y-33333333D01*
X35454819Y-33333333D02*
X35454819Y-33571428D01*
X35454819Y-33571428D02*
X35502438Y-33666666D01*
X35502438Y-33666666D02*
X35550057Y-33714285D01*
X35550057Y-33714285D02*
X35645295Y-33761904D01*
X35645295Y-33761904D02*
X35740533Y-33761904D01*
X35740533Y-33761904D02*
X35883390Y-33714285D01*
X35883390Y-33714285D02*
X36454819Y-33142857D01*
X36454819Y-33142857D02*
X36454819Y-33761904D01*
X70954819Y-35833333D02*
X70478628Y-35500000D01*
X70954819Y-35261905D02*
X69954819Y-35261905D01*
X69954819Y-35261905D02*
X69954819Y-35642857D01*
X69954819Y-35642857D02*
X70002438Y-35738095D01*
X70002438Y-35738095D02*
X70050057Y-35785714D01*
X70050057Y-35785714D02*
X70145295Y-35833333D01*
X70145295Y-35833333D02*
X70288152Y-35833333D01*
X70288152Y-35833333D02*
X70383390Y-35785714D01*
X70383390Y-35785714D02*
X70431009Y-35738095D01*
X70431009Y-35738095D02*
X70478628Y-35642857D01*
X70478628Y-35642857D02*
X70478628Y-35261905D01*
X70954819Y-36785714D02*
X70954819Y-36214286D01*
X70954819Y-36500000D02*
X69954819Y-36500000D01*
X69954819Y-36500000D02*
X70097676Y-36404762D01*
X70097676Y-36404762D02*
X70192914Y-36309524D01*
X70192914Y-36309524D02*
X70240533Y-36214286D01*
X47666666Y-34859580D02*
X47714285Y-34907200D01*
X47714285Y-34907200D02*
X47857142Y-34954819D01*
X47857142Y-34954819D02*
X47952380Y-34954819D01*
X47952380Y-34954819D02*
X48095237Y-34907200D01*
X48095237Y-34907200D02*
X48190475Y-34811961D01*
X48190475Y-34811961D02*
X48238094Y-34716723D01*
X48238094Y-34716723D02*
X48285713Y-34526247D01*
X48285713Y-34526247D02*
X48285713Y-34383390D01*
X48285713Y-34383390D02*
X48238094Y-34192914D01*
X48238094Y-34192914D02*
X48190475Y-34097676D01*
X48190475Y-34097676D02*
X48095237Y-34002438D01*
X48095237Y-34002438D02*
X47952380Y-33954819D01*
X47952380Y-33954819D02*
X47857142Y-33954819D01*
X47857142Y-33954819D02*
X47714285Y-34002438D01*
X47714285Y-34002438D02*
X47666666Y-34050057D01*
X46809523Y-33954819D02*
X46999999Y-33954819D01*
X46999999Y-33954819D02*
X47095237Y-34002438D01*
X47095237Y-34002438D02*
X47142856Y-34050057D01*
X47142856Y-34050057D02*
X47238094Y-34192914D01*
X47238094Y-34192914D02*
X47285713Y-34383390D01*
X47285713Y-34383390D02*
X47285713Y-34764342D01*
X47285713Y-34764342D02*
X47238094Y-34859580D01*
X47238094Y-34859580D02*
X47190475Y-34907200D01*
X47190475Y-34907200D02*
X47095237Y-34954819D01*
X47095237Y-34954819D02*
X46904761Y-34954819D01*
X46904761Y-34954819D02*
X46809523Y-34907200D01*
X46809523Y-34907200D02*
X46761904Y-34859580D01*
X46761904Y-34859580D02*
X46714285Y-34764342D01*
X46714285Y-34764342D02*
X46714285Y-34526247D01*
X46714285Y-34526247D02*
X46761904Y-34431009D01*
X46761904Y-34431009D02*
X46809523Y-34383390D01*
X46809523Y-34383390D02*
X46904761Y-34335771D01*
X46904761Y-34335771D02*
X47095237Y-34335771D01*
X47095237Y-34335771D02*
X47190475Y-34383390D01*
X47190475Y-34383390D02*
X47238094Y-34431009D01*
X47238094Y-34431009D02*
X47285713Y-34526247D01*
X36813333Y-21404819D02*
X36813333Y-22119104D01*
X36813333Y-22119104D02*
X36860952Y-22261961D01*
X36860952Y-22261961D02*
X36956190Y-22357200D01*
X36956190Y-22357200D02*
X37099047Y-22404819D01*
X37099047Y-22404819D02*
X37194285Y-22404819D01*
X36432380Y-21404819D02*
X35765714Y-21404819D01*
X35765714Y-21404819D02*
X36194285Y-22404819D01*
X27571428Y-34981009D02*
X27904761Y-34981009D01*
X27904761Y-35504819D02*
X27904761Y-34504819D01*
X27904761Y-34504819D02*
X27428571Y-34504819D01*
X27047618Y-35504819D02*
X27047618Y-34504819D01*
X26571428Y-35504819D02*
X26571428Y-34504819D01*
X26571428Y-34504819D02*
X26333333Y-34504819D01*
X26333333Y-34504819D02*
X26190476Y-34552438D01*
X26190476Y-34552438D02*
X26095238Y-34647676D01*
X26095238Y-34647676D02*
X26047619Y-34742914D01*
X26047619Y-34742914D02*
X26000000Y-34933390D01*
X26000000Y-34933390D02*
X26000000Y-35076247D01*
X26000000Y-35076247D02*
X26047619Y-35266723D01*
X26047619Y-35266723D02*
X26095238Y-35361961D01*
X26095238Y-35361961D02*
X26190476Y-35457200D01*
X26190476Y-35457200D02*
X26333333Y-35504819D01*
X26333333Y-35504819D02*
X26571428Y-35504819D01*
X25047619Y-35504819D02*
X25619047Y-35504819D01*
X25333333Y-35504819D02*
X25333333Y-34504819D01*
X25333333Y-34504819D02*
X25428571Y-34647676D01*
X25428571Y-34647676D02*
X25523809Y-34742914D01*
X25523809Y-34742914D02*
X25619047Y-34790533D01*
X34954819Y-31857142D02*
X34478628Y-31523809D01*
X34954819Y-31285714D02*
X33954819Y-31285714D01*
X33954819Y-31285714D02*
X33954819Y-31666666D01*
X33954819Y-31666666D02*
X34002438Y-31761904D01*
X34002438Y-31761904D02*
X34050057Y-31809523D01*
X34050057Y-31809523D02*
X34145295Y-31857142D01*
X34145295Y-31857142D02*
X34288152Y-31857142D01*
X34288152Y-31857142D02*
X34383390Y-31809523D01*
X34383390Y-31809523D02*
X34431009Y-31761904D01*
X34431009Y-31761904D02*
X34478628Y-31666666D01*
X34478628Y-31666666D02*
X34478628Y-31285714D01*
X34954819Y-32809523D02*
X34954819Y-32238095D01*
X34954819Y-32523809D02*
X33954819Y-32523809D01*
X33954819Y-32523809D02*
X34097676Y-32428571D01*
X34097676Y-32428571D02*
X34192914Y-32333333D01*
X34192914Y-32333333D02*
X34240533Y-32238095D01*
X34954819Y-33761904D02*
X34954819Y-33190476D01*
X34954819Y-33476190D02*
X33954819Y-33476190D01*
X33954819Y-33476190D02*
X34097676Y-33380952D01*
X34097676Y-33380952D02*
X34192914Y-33285714D01*
X34192914Y-33285714D02*
X34240533Y-33190476D01*
%TO.C,D1*%
D12*
X33010000Y-40850000D02*
X27500000Y-40850000D01*
X33010000Y-40850000D02*
X33010000Y-44150000D01*
X33010000Y-44150000D02*
X27500000Y-44150000D01*
%TO.C,C9*%
X48757836Y-26470000D02*
X48542164Y-26470000D01*
X48757836Y-27190000D02*
X48542164Y-27190000D01*
%TO.C,C5*%
X49412164Y-32640000D02*
X49627836Y-32640000D01*
X49412164Y-33360000D02*
X49627836Y-33360000D01*
%TO.C,R4*%
X63977500Y-24787742D02*
X63977500Y-25262258D01*
X65022500Y-24787742D02*
X65022500Y-25262258D01*
%TO.C,R2*%
X71620000Y-37846359D02*
X71620000Y-38153641D01*
X72380000Y-37846359D02*
X72380000Y-38153641D01*
%TO.C,C17*%
X31261252Y-34765000D02*
X30738748Y-34765000D01*
X31261252Y-36235000D02*
X30738748Y-36235000D01*
%TO.C,C4*%
X55273748Y-33765000D02*
X55796252Y-33765000D01*
X55273748Y-35235000D02*
X55796252Y-35235000D01*
%TO.C,R3*%
X54604538Y-24612742D02*
X54604538Y-25087258D01*
X55649538Y-24612742D02*
X55649538Y-25087258D01*
%TO.C,R9*%
X30620000Y-32643641D02*
X30620000Y-32336359D01*
X31380000Y-32643641D02*
X31380000Y-32336359D01*
%TO.C,C10*%
X48757836Y-17470000D02*
X48542164Y-17470000D01*
X48757836Y-18190000D02*
X48542164Y-18190000D01*
%TO.C,L1*%
X32500000Y-36900000D02*
X29500000Y-36900000D01*
X32500000Y-40100000D02*
X29500000Y-40100000D01*
%TO.C,U4*%
X32065000Y-32074432D02*
X32065000Y-33210000D01*
X33935000Y-33210000D02*
X33935000Y-31790000D01*
X32060000Y-31780000D02*
X31870000Y-31640000D01*
X31870000Y-31920000D01*
X32060000Y-31780000D01*
G36*
X32060000Y-31780000D02*
G01*
X31870000Y-31920000D01*
X31870000Y-31640000D01*
X32060000Y-31780000D01*
G37*
%TO.C,C13*%
X56217038Y-23248874D02*
X58567038Y-23248874D01*
X56217038Y-29004437D02*
X56217038Y-23248874D01*
X57281475Y-30068874D02*
X56217038Y-29004437D01*
X57281475Y-30068874D02*
X58567038Y-30068874D01*
X61474538Y-31096374D02*
X61474538Y-30308874D01*
X61868288Y-30702624D02*
X61080788Y-30702624D01*
X61972601Y-30068874D02*
X60687038Y-30068874D01*
X61972601Y-30068874D02*
X63037038Y-29004437D01*
X63037038Y-23248874D02*
X60687038Y-23248874D01*
X63037038Y-29004437D02*
X63037038Y-23248874D01*
%TO.C,R13*%
X39375000Y-30153641D02*
X39375000Y-29846359D01*
X40135000Y-30153641D02*
X40135000Y-29846359D01*
%TO.C,R10*%
X29620000Y-32346359D02*
X29620000Y-32653641D01*
X30380000Y-32346359D02*
X30380000Y-32653641D01*
%TO.C,C15*%
X59110000Y-33597836D02*
X59110000Y-33382164D01*
X59830000Y-33597836D02*
X59830000Y-33382164D01*
%TO.C,U3*%
X63440000Y-32440000D02*
X63440000Y-32495000D01*
X63440000Y-42505000D02*
X63440000Y-42560000D01*
X63440000Y-42560000D02*
X67560000Y-42560000D01*
X67560000Y-32440000D02*
X63440000Y-32440000D01*
X67560000Y-32495000D02*
X67560000Y-32440000D01*
X67560000Y-42560000D02*
X67560000Y-42505000D01*
X62900000Y-42510000D02*
X62660000Y-42840000D01*
X63140000Y-42840000D01*
X62900000Y-42510000D01*
G36*
X63140000Y-42840000D02*
G01*
X62660000Y-42840000D01*
X62900000Y-42510000D01*
X63140000Y-42840000D01*
G37*
%TO.C,C16*%
X31261252Y-28765000D02*
X30738748Y-28765000D01*
X31261252Y-30235000D02*
X30738748Y-30235000D01*
%TO.C,C2*%
X56140000Y-37911540D02*
X56140000Y-37695868D01*
X56860000Y-37911540D02*
X56860000Y-37695868D01*
%TO.C,C11*%
X45220000Y-18920000D02*
X45220000Y-21270000D01*
X45220000Y-25740000D02*
X45220000Y-23390000D01*
X50975563Y-18920000D02*
X45220000Y-18920000D01*
X50975563Y-25740000D02*
X45220000Y-25740000D01*
X52040000Y-19984437D02*
X50975563Y-18920000D01*
X52040000Y-19984437D02*
X52040000Y-21270000D01*
X52040000Y-24675563D02*
X50975563Y-25740000D01*
X52040000Y-24675563D02*
X52040000Y-23390000D01*
X52673750Y-20088750D02*
X52673750Y-20876250D01*
X53067500Y-20482500D02*
X52280000Y-20482500D01*
%TO.C,C7*%
X58738748Y-34765000D02*
X59261252Y-34765000D01*
X58738748Y-36235000D02*
X59261252Y-36235000D01*
%TO.C,R12*%
X35375000Y-29953641D02*
X35375000Y-29646359D01*
X36135000Y-29953641D02*
X36135000Y-29646359D01*
%TO.C,C3*%
X54537968Y-37911540D02*
X54537968Y-37695868D01*
X55257968Y-37911540D02*
X55257968Y-37695868D01*
%TO.C,R8*%
X60620000Y-33653641D02*
X60620000Y-33346359D01*
X61380000Y-33653641D02*
X61380000Y-33346359D01*
%TO.C,C12*%
X59371602Y-37008523D02*
X59090442Y-37008523D01*
X59371602Y-38028523D02*
X59090442Y-38028523D01*
%TO.C,R1*%
X70120000Y-38153641D02*
X70120000Y-37846359D01*
X70880000Y-38153641D02*
X70880000Y-37846359D01*
%TO.C,C6*%
X49859420Y-33990000D02*
X50140580Y-33990000D01*
X49859420Y-35010000D02*
X50140580Y-35010000D01*
%TO.C,C8*%
X58738748Y-38765000D02*
X59261252Y-38765000D01*
X58738748Y-40235000D02*
X59261252Y-40235000D01*
%TO.C,R7*%
X57590000Y-33326359D02*
X57590000Y-33633641D01*
X58350000Y-33326359D02*
X58350000Y-33633641D01*
%TO.C,J7*%
X30045000Y-16165000D02*
X30045000Y-17975000D01*
X30045000Y-19875000D02*
X30045000Y-26175000D01*
X30155000Y-16165000D02*
X30045000Y-16165000D01*
X42915000Y-16165000D02*
X31655000Y-16165000D01*
X42915000Y-17325000D02*
X42915000Y-16165000D01*
X42915000Y-20575000D02*
X42915000Y-26175000D01*
%TO.C,U2*%
X49425000Y-35890000D02*
X49425000Y-36090000D01*
X49425000Y-38910000D02*
X49425000Y-39110000D01*
X49425000Y-39110000D02*
X52645000Y-39110000D01*
X52645000Y-35890000D02*
X49425000Y-35890000D01*
X52645000Y-36090000D02*
X52645000Y-35890000D01*
X52645000Y-39110000D02*
X52645000Y-38910000D01*
X48875000Y-38910000D02*
X48635000Y-39240000D01*
X49115000Y-39240000D01*
X48875000Y-38910000D01*
G36*
X49115000Y-39240000D02*
G01*
X48635000Y-39240000D01*
X48875000Y-38910000D01*
X49115000Y-39240000D01*
G37*
%TO.C,C14*%
X65590000Y-23315000D02*
X67940000Y-23315000D01*
X65590000Y-29070563D02*
X65590000Y-23315000D01*
X66654437Y-30135000D02*
X65590000Y-29070563D01*
X66654437Y-30135000D02*
X67940000Y-30135000D01*
X70847500Y-31162500D02*
X70847500Y-30375000D01*
X71241250Y-30768750D02*
X70453750Y-30768750D01*
X71345563Y-30135000D02*
X70060000Y-30135000D01*
X71345563Y-30135000D02*
X72410000Y-29070563D01*
X72410000Y-23315000D02*
X70060000Y-23315000D01*
X72410000Y-29070563D02*
X72410000Y-23315000D01*
%TO.C,R11*%
X34375000Y-29953641D02*
X34375000Y-29646359D01*
X35135000Y-29953641D02*
X35135000Y-29646359D01*
%TD*%
M02*
