M48
; DRILL file KiCad 10.0.3 date 2026-06-20T10:20:48
; FORMAT={-:-/ absolute / metric / decimal}
; #@! TF.CreationDate,2026-06-20T10:20:48+02:00
; #@! TF.GenerationSoftware,Kicad,Pcbnew,10.0.3
; #@! TF.FileFunction,MixedPlating,1,2
FMAT,2
METRIC
; #@! TA.AperFunction,Plated,PTH,ViaDrill
T1C0.300
; #@! TA.AperFunction,Plated,PTH,ComponentDrill
T2C0.300
; #@! TA.AperFunction,Plated,PTH,ComponentDrill
T3C0.750
; #@! TA.AperFunction,Plated,PTH,ComponentDrill
T4C1.000
; #@! TA.AperFunction,NonPlated,NPTH,ComponentDrill
T5C1.500
%
G90
G05
T1
X25.0Y-43.5
X25.5Y-16.5
X28.0Y-19.0
X28.0Y-20.0
X28.0Y-21.38
X28.0Y-23.0
X28.0Y-24.0
X28.0Y-25.0
X28.0Y-26.5
X28.0Y-27.5
X28.0Y-29.5
X28.5Y-36.0
X31.0Y-20.5
X31.0Y-23.0
X31.0Y-31.0
X31.0Y-34.0
X32.725Y-30.275
X33.845Y-29.5
X38.5Y-32.0
X39.755Y-28.784
X41.0Y-29.0
X41.5Y-30.0
X42.5Y-30.5
X44.1Y-35.5
X44.47Y-28.5
X44.47Y-31.0
X44.5Y-20.5
X44.5Y-29.5
X44.5Y-32.0
X44.5Y-33.5
X44.5Y-34.5
X44.758Y-27.626
X45.5Y-27.0
X49.0Y-21.0
X50.0Y-41.0
X50.0Y-43.5
X51.0Y-33.0
X54.0Y-25.5
X55.0Y-33.0
X55.5Y-38.284
X57.0Y-27.0
X58.0Y-32.0
X61.0Y-36.5
X61.5Y-27.0
X61.5Y-43.5
X63.5Y-19.0
X64.5Y-19.0
X65.5Y-19.0
X65.5Y-34.5
X65.5Y-40.675
X66.5Y-20.0
X67.0Y-27.0
X67.5Y-20.0
X68.5Y-19.5
X69.85Y-16.069
X69.85Y-17.94
X70.0Y-17.0
X71.0Y-43.5
X71.5Y-27.0
X71.5Y-36.5
T2
X65.0Y-36.3
X65.0Y-37.5
X65.0Y-38.7
X66.0Y-36.3
X66.0Y-37.5
X66.0Y-38.7
T3
X36.0Y-42.05
X38.0Y-42.05
X43.0Y-42.05
X45.0Y-42.05
X70.45Y-40.0
X70.45Y-42.0
X71.5Y-32.5
X71.5Y-34.5
T4
X26.5Y-18.84
X26.5Y-21.38
X26.5Y-23.92
X26.5Y-26.46
X26.5Y-29.0
X26.5Y-31.54
T5
X62.5Y-20.5
X69.5Y-20.5
M30
