%TF.GenerationSoftware,KiCad,Pcbnew,10.0.3*%
%TF.CreationDate,2026-06-20T10:20:25+02:00*%
%TF.ProjectId,esp32audio,65737033-3261-4756-9469-6f2e6b696361,rev?*%
%TF.SameCoordinates,Original*%
%TF.FileFunction,Copper,L1,Top*%
%TF.FilePolarity,Positive*%
%FSLAX46Y46*%
G04 Gerber Fmt 4.6, Leading zero omitted, Abs format (unit mm)*
G04 Created by KiCad (PCBNEW 10.0.3) date 2026-06-20 10:20:25*
%MOMM*%
%LPD*%
G01*
G04 APERTURE LIST*
G04 Aperture macros list*
%AMRoundRect*
0 Rectangle with rounded corners*
0 $1 Rounding radius*
0 $2 $3 $4 $5 $6 $7 $8 $9 X,Y pos of 4 corners*
0 Add a 4 corners polygon primitive as box body*
4,1,4,$2,$3,$4,$5,$6,$7,$8,$9,$2,$3,0*
0 Add four circle primitives for the rounded corners*
1,1,$1+$1,$2,$3*
1,1,$1+$1,$4,$5*
1,1,$1+$1,$6,$7*
1,1,$1+$1,$8,$9*
0 Add four rect primitives between the rounded corners*
20,1,$1+$1,$2,$3,$4,$5,0*
20,1,$1+$1,$4,$5,$6,$7,0*
20,1,$1+$1,$6,$7,$8,$9,0*
20,1,$1+$1,$8,$9,$2,$3,0*%
G04 Aperture macros list end*
%TA.AperFunction,ComponentPad*%
%ADD10RoundRect,0.250000X0.625000X-0.350000X0.625000X0.350000X-0.625000X0.350000X-0.625000X-0.350000X0*%
%TD*%
%TA.AperFunction,ComponentPad*%
%ADD11O,1.750000X1.200000*%
%TD*%
%TA.AperFunction,ComponentPad*%
%ADD12R,1.700000X1.700000*%
%TD*%
%TA.AperFunction,ComponentPad*%
%ADD13C,1.700000*%
%TD*%
%TA.AperFunction,ComponentPad*%
%ADD14RoundRect,0.250000X-0.625000X0.350000X-0.625000X-0.350000X0.625000X-0.350000X0.625000X0.350000X0*%
%TD*%
%TA.AperFunction,SMDPad,CuDef*%
%ADD15RoundRect,0.140000X0.170000X-0.140000X0.170000X0.140000X-0.170000X0.140000X-0.170000X-0.140000X0*%
%TD*%
%TA.AperFunction,ComponentPad*%
%ADD16RoundRect,0.250000X0.350000X0.625000X-0.350000X0.625000X-0.350000X-0.625000X0.350000X-0.625000X0*%
%TD*%
%TA.AperFunction,ComponentPad*%
%ADD17O,1.200000X1.750000*%
%TD*%
%TA.AperFunction,SMDPad,CuDef*%
%ADD18RoundRect,0.225000X-0.525000X-0.775000X0.525000X-0.775000X0.525000X0.775000X-0.525000X0.775000X0*%
%TD*%
%TA.AperFunction,SMDPad,CuDef*%
%ADD19R,2.030000X1.020000*%
%TD*%
%TA.AperFunction,SMDPad,CuDef*%
%ADD20C,1.140000*%
%TD*%
%TA.AperFunction,SMDPad,CuDef*%
%ADD21RoundRect,0.250000X0.475000X-0.250000X0.475000X0.250000X-0.475000X0.250000X-0.475000X-0.250000X0*%
%TD*%
%TA.AperFunction,SMDPad,CuDef*%
%ADD22R,1.200000X2.500000*%
%TD*%
%TA.AperFunction,ComponentPad*%
%ADD23C,0.600000*%
%TD*%
%TA.AperFunction,ViaPad*%
%ADD24C,0.600000*%
%TD*%
%TA.AperFunction,Conductor*%
%ADD25C,0.200000*%
%TD*%
%TA.AperFunction,Conductor*%
%ADD26C,0.500000*%
%TD*%
G04 APERTURE END LIST*
D10*
%TO.P,J3,1,Pin_1_1*%
%TO.N,/SPK_R_NEG*%
X70450000Y-42000000D03*
D11*
%TO.P,J3,2,Pin_2_2*%
%TO.N,/SPK_R_POS*%
X70450000Y-40000000D03*
%TD*%
D12*
%TO.P,J6,1,Pin_1_1*%
%TO.N,/D0*%
X26500000Y-18840000D03*
D13*
%TO.P,J6,2,Pin_2_2*%
%TO.N,/D1_NET*%
X26500000Y-21380000D03*
%TO.P,J6,3,Pin_3_3*%
%TO.N,/D6_NET*%
X26500000Y-23920000D03*
%TO.P,J6,4,Pin_4_4*%
%TO.N,/GND*%
X26500000Y-26460000D03*
%TO.P,J6,5,Pin_5_5*%
%TO.N,/+3V3*%
X26500000Y-29000000D03*
%TO.P,J6,6,Pin_6_6*%
%TO.N,/D5_NET*%
X26500000Y-31540000D03*
%TD*%
D14*
%TO.P,J2,1,Pin_1_1*%
%TO.N,/SPK_L_NEG*%
X71500000Y-32500000D03*
D11*
%TO.P,J2,2,Pin_2_2*%
%TO.N,/SPK_L_POS*%
X71500000Y-34500000D03*
%TD*%
D15*
%TO.P,C18,1*%
%TO.N,/+3V3*%
X51500000Y-23480000D03*
%TO.P,C18,2*%
%TO.N,/GND*%
X51500000Y-22520000D03*
%TD*%
D16*
%TO.P,GND 5V,1,Pin_1_1*%
%TO.N,/+5V*%
X45000000Y-42050000D03*
D17*
%TO.P,GND 5V,2,Pin_2_2*%
%TO.N,/GND*%
X43000000Y-42050000D03*
%TD*%
D18*
%TO.P,U1,1,D0/GPIO1_1*%
%TO.N,/D0*%
X29500000Y-19000000D03*
%TO.P,U1,2,D1/GPIO2_2*%
%TO.N,/D1_NET*%
X29500000Y-21540000D03*
%TO.P,U1,3,D2/GPIO3_3*%
%TO.N,/SD_SCK*%
X29500000Y-24080000D03*
%TO.P,U1,4,D3/GPIO4_4*%
%TO.N,/SD_MOSI*%
X29500000Y-26620000D03*
%TO.P,U1,5,D4/GPIO5_5*%
%TO.N,/SD_MISO*%
X29500000Y-29160000D03*
%TO.P,U1,6,D5/GPIO6_6*%
%TO.N,/D5_NET*%
X29500000Y-31700000D03*
%TO.P,U1,7,D6/GPIO43_7*%
%TO.N,/D6_NET*%
X29500000Y-34240000D03*
%TO.P,U1,8,D7/GPIO44_8*%
%TO.N,/I2S_BCLK*%
X47280000Y-34240000D03*
%TO.P,U1,9,D8/GPIO7_9*%
%TO.N,/I2S_LRCK*%
X47280000Y-31700000D03*
%TO.P,U1,10,D9/GPIO8_10*%
%TO.N,/I2S_DOUT*%
X47280000Y-29160000D03*
%TO.P,U1,11,D10/GPIO9_11*%
%TO.N,/I2S_MCLK*%
X47280000Y-26620000D03*
%TO.P,U1,12,3V3_12*%
%TO.N,/+3V3*%
X47280000Y-24080000D03*
%TO.P,U1,13,GND_13*%
%TO.N,/GND*%
X47280000Y-21540000D03*
%TO.P,U1,14,5V_14*%
%TO.N,/+5V*%
X47280000Y-19000000D03*
D19*
%TO.P,U1,15,BAT+_15*%
%TO.N,/BAT+*%
X33950000Y-26220000D03*
%TO.P,U1,16,GND_BTM_16*%
%TO.N,/GND*%
X33950000Y-24310000D03*
D20*
%TO.P,U1,17,GND_TP1_17*%
X39660000Y-20500000D03*
%TO.P,U1,18,IO42_18*%
%TO.N,N/C*%
X37120000Y-23030000D03*
%TO.P,U1,19,IO41_NC_19*%
%TO.N,unconnected-(U1-IO41_NC-Pad19)*%
X37120000Y-17950000D03*
%TO.P,U1,20,IO40_NC_20*%
%TO.N,unconnected-(U1-IO40_NC-Pad20)*%
X39660000Y-17950000D03*
%TO.P,U1,21,IO39_NC_21*%
%TO.N,unconnected-(U1-IO39_NC-Pad21)*%
X39660000Y-23030000D03*
%TO.P,U1,22,~{EN}_22*%
%TO.N,N/C*%
X37120000Y-20500000D03*
%TO.P,U1,23,USB_D-_23*%
%TO.N,/SD_CS*%
X37120000Y-25580000D03*
%TO.P,U1,24,USB_D+_24*%
%TO.N,unconnected-(U1-USB_D+-Pad24)*%
X39660000Y-25580000D03*
%TD*%
D16*
%TO.P,GND BAT+,1,Pin_1_1*%
%TO.N,/BAT+*%
X38000000Y-42050000D03*
D17*
%TO.P,GND BAT+,2,Pin_2_2*%
%TO.N,/GND*%
X36000000Y-42050000D03*
%TD*%
D21*
%TO.P,C19,1*%
%TO.N,/+3V3*%
X50000000Y-23900000D03*
%TO.P,C19,2*%
%TO.N,/GND*%
X50000000Y-22000000D03*
%TD*%
D22*
%TO.P,J1,R1*%
%TO.N,N/C*%
X67100000Y-17250000D03*
%TO.P,J1,R2*%
X64100000Y-17250000D03*
%TO.P,J1,S*%
%TO.N,/GND*%
X72200000Y-23750000D03*
%TO.P,J1,T*%
%TO.N,/HP_L*%
X71100000Y-17250000D03*
%TD*%
D23*
%TO.P,U3,17,EP_17*%
%TO.N,/GND*%
X65000000Y-36300000D03*
X65000000Y-37500000D03*
X65000000Y-38700000D03*
X66000000Y-36300000D03*
X66000000Y-37500000D03*
X66000000Y-38700000D03*
%TD*%
D24*
%TO.N,/D0*%
X28000000Y-19000000D03*
%TO.N,/D1_NET*%
X28000000Y-21380000D03*
%TO.N,/GND*%
X44757793Y-27626381D03*
X51000000Y-33000000D03*
X57000000Y-27000000D03*
X65500000Y-34500000D03*
X50000000Y-41000000D03*
X71000000Y-43500000D03*
X31000000Y-20500000D03*
X25500000Y-16500000D03*
X71500000Y-36500000D03*
X28000000Y-20000000D03*
X61000000Y-36500000D03*
X61500000Y-27000000D03*
X54000000Y-25500000D03*
X25000000Y-43500000D03*
X44100000Y-35500000D03*
X44500000Y-20500000D03*
X44470492Y-28500000D03*
X49000000Y-21000000D03*
X42500000Y-30500000D03*
X68500000Y-19500000D03*
X28000000Y-23000000D03*
X61500000Y-43500000D03*
X31000000Y-34000000D03*
X31000000Y-31000000D03*
X44470492Y-31000000D03*
X67000000Y-27000000D03*
X28000000Y-25000000D03*
X69849791Y-16069361D03*
X28000000Y-27500000D03*
X71500000Y-27000000D03*
X50000000Y-43500000D03*
X66500000Y-20000000D03*
X65500000Y-19000000D03*
X69849791Y-17940322D03*
X28500000Y-36000000D03*
X63500000Y-19000000D03*
X41000000Y-29000000D03*
X44500000Y-33500000D03*
X55000000Y-33000000D03*
X31000000Y-23000000D03*
X28000000Y-29500000D03*
%TO.N,/+3V3*%
X55500000Y-38283704D03*
X41500000Y-30000000D03*
%TO.N,/+5V*%
X58000000Y-32000000D03*
X65500000Y-40675000D03*
%TO.N,/SD_SCK*%
X28000000Y-24000000D03*
%TO.N,/SD_MOSI*%
X28000000Y-26500000D03*
%TO.N,/SD_MISO*%
X39755000Y-28784191D03*
%TO.N,/I2S_BCLK*%
X44500000Y-34500000D03*
%TO.N,/I2S_LRCK*%
X44500000Y-32000000D03*
%TO.N,/I2S_DOUT*%
X44500000Y-29500000D03*
%TO.N,/I2S_MCLK*%
X45500000Y-27000000D03*
%TO.N,/BAT+*%
X32725000Y-30275000D03*
X38500000Y-32000000D03*
%TO.N,/SD_CS*%
X33845000Y-29500000D03*
%TO.N,/HP_L*%
X70000000Y-17000000D03*
%TO.N,/HP_R*%
X67500000Y-20000000D03*
%TO.N,/J1_SW*%
X64500000Y-19000000D03*
%TD*%
%TO.N,/D0*%
D25*
X29500000Y-19000000D02*
X28000000Y-19000000D01*
X26660000Y-19000000D02*
X26500000Y-18840000D01*
X28680000Y-19000000D02*
X28840000Y-18840000D01*
X28000000Y-19000000D02*
X28680000Y-19000000D01*
%TO.N,/D1_NET*%
X29500000Y-21540000D02*
X28160000Y-21540000D01*
X28160000Y-21540000D02*
X28000000Y-21380000D01*
X26660000Y-21540000D02*
X26500000Y-21380000D01*
%TO.N,/D6_NET*%
X25000000Y-25000000D02*
X25420000Y-25000000D01*
X26340001Y-34240000D02*
X25000000Y-32899999D01*
X25420000Y-25000000D02*
X26500000Y-23920000D01*
X29500000Y-34240000D02*
X26340001Y-34240000D01*
X25000000Y-32899999D02*
X25000000Y-25000000D01*
X26660000Y-24080000D02*
X26500000Y-23920000D01*
%TO.N,/GND*%
X50520000Y-22520000D02*
X50000000Y-22000000D01*
X47280000Y-21540000D02*
X49540000Y-21540000D01*
X26660000Y-26620000D02*
X26500000Y-26460000D01*
X49540000Y-21540000D02*
X50000000Y-22000000D01*
X51500000Y-22520000D02*
X50520000Y-22520000D01*
%TO.N,/+3V3*%
X44920000Y-24080000D02*
X43000000Y-26000000D01*
X50000000Y-23900000D02*
X50900000Y-23900000D01*
X54000000Y-27000000D02*
X54000000Y-36783704D01*
X50900000Y-23900000D02*
X54000000Y-27000000D01*
X47280000Y-24080000D02*
X50900000Y-24080000D01*
X47280000Y-24080000D02*
X44920000Y-24080000D01*
X43000000Y-28500000D02*
X41500000Y-30000000D01*
X54000000Y-36783704D02*
X55500000Y-38283704D01*
X43000000Y-26000000D02*
X43000000Y-28500000D01*
X50900000Y-24080000D02*
X51500000Y-23480000D01*
X26660000Y-29160000D02*
X26500000Y-29000000D01*
%TO.N,/D5_NET*%
X26660000Y-31700000D02*
X26500000Y-31540000D01*
X29500000Y-31700000D02*
X26660000Y-31700000D01*
%TO.N,/+5V*%
D26*
X55515000Y-41015000D02*
X56500000Y-42000000D01*
D25*
X57030000Y-32970000D02*
X56000000Y-32970000D01*
D26*
X56500000Y-42000000D02*
X64175000Y-42000000D01*
D25*
X51500000Y-19000000D02*
X47280000Y-19000000D01*
D26*
X57000000Y-39500000D02*
X55515000Y-40985000D01*
X64175000Y-42000000D02*
X65500000Y-40675000D01*
D25*
X55515000Y-40985000D02*
X55515000Y-41015000D01*
X56000000Y-32970000D02*
X55515000Y-32485000D01*
D26*
X58000000Y-32000000D02*
X57000000Y-33000000D01*
D25*
X55515000Y-23015000D02*
X51500000Y-19000000D01*
D26*
X57000000Y-33000000D02*
X57000000Y-39500000D01*
X54000000Y-42500000D02*
X45000000Y-42500000D01*
D25*
X58000000Y-32000000D02*
X57030000Y-32970000D01*
D26*
X55515000Y-40985000D02*
X54000000Y-42500000D01*
D25*
X55515000Y-32485000D02*
X55515000Y-23015000D01*
%TO.N,/SD_SCK*%
X29500000Y-24080000D02*
X28080000Y-24080000D01*
X28080000Y-24080000D02*
X28000000Y-24000000D01*
%TO.N,/SD_MOSI*%
X28120000Y-26620000D02*
X28000000Y-26500000D01*
X29500000Y-26620000D02*
X28120000Y-26620000D01*
%TO.N,/SD_MISO*%
X32000000Y-31000000D02*
X37500000Y-31000000D01*
X31000000Y-30000000D02*
X32000000Y-31000000D01*
X29500000Y-29160000D02*
X30340000Y-30000000D01*
X30340000Y-30000000D02*
X31000000Y-30000000D01*
X37500000Y-31000000D02*
X39500000Y-29000000D01*
%TO.N,/I2S_BCLK*%
X47280000Y-34240000D02*
X44760000Y-34240000D01*
X44760000Y-34240000D02*
X44500000Y-34500000D01*
%TO.N,/I2S_LRCK*%
X45700000Y-31700000D02*
X47280000Y-31700000D01*
X44500000Y-32000000D02*
X45400000Y-32000000D01*
X45400000Y-32000000D02*
X45700000Y-31700000D01*
%TO.N,/I2S_DOUT*%
X44500000Y-29500000D02*
X45500000Y-29500000D01*
X45840000Y-29160000D02*
X47280000Y-29160000D01*
X45500000Y-29500000D02*
X45840000Y-29160000D01*
%TO.N,/I2S_MCLK*%
X45880000Y-26620000D02*
X45500000Y-27000000D01*
X45880000Y-26620000D02*
X47280000Y-26620000D01*
%TO.N,/BAT+*%
X32725000Y-30225000D02*
X32000000Y-29500000D01*
X33670000Y-26500000D02*
X33950000Y-26220000D01*
X32725000Y-30275000D02*
X32725000Y-30225000D01*
X32500000Y-26500000D02*
X33670000Y-26500000D01*
X32000000Y-27000000D02*
X32500000Y-26500000D01*
X32000000Y-29500000D02*
X32000000Y-27000000D01*
%TO.N,/SD_CS*%
X35000000Y-29500000D02*
X37000000Y-27500000D01*
X37000000Y-25700000D02*
X37120000Y-25580000D01*
X33845000Y-29500000D02*
X35000000Y-29500000D01*
X37000000Y-27500000D02*
X37000000Y-25700000D01*
%TO.N,/HP_L*%
X71350000Y-17000000D02*
X71600000Y-16750000D01*
X70000000Y-17000000D02*
X71350000Y-17000000D01*
%TO.N,/HP_R*%
X67600000Y-19900000D02*
X67500000Y-20000000D01*
X67600000Y-16750000D02*
X67600000Y-19900000D01*
%TO.N,/J1_SW*%
X64500000Y-18500000D02*
X64600000Y-18400000D01*
X64500000Y-19000000D02*
X64500000Y-18500000D01*
X64600000Y-18400000D02*
X64600000Y-16750000D01*
%TD*%
%TA.AperFunction,Conductor*%
%TO.N,/GND*%
G36*
X74458691Y-15519407D02*
G01*
X74494655Y-15568907D01*
X74499500Y-15599500D01*
X74499500Y-44400500D01*
X74480593Y-44458691D01*
X74431093Y-44494655D01*
X74400500Y-44499500D01*
X24599500Y-44499500D01*
X24541309Y-44480593D01*
X24505345Y-44431093D01*
X24500500Y-44400500D01*
X24500500Y-41688424D01*
X34900000Y-41688424D01*
X34900000Y-41799999D01*
X34900001Y-41800000D01*
X35719670Y-41800000D01*
X35699925Y-41819745D01*
X35650556Y-41905255D01*
X35625000Y-42000630D01*
X35625000Y-42099370D01*
X35650556Y-42194745D01*
X35699925Y-42280255D01*
X35719670Y-42300000D01*
X34900001Y-42300000D01*
X34900000Y-42300001D01*
X34900000Y-42411575D01*
X34927084Y-42582579D01*
X34980588Y-42747248D01*
X35059195Y-42901524D01*
X35059197Y-42901528D01*
X35160962Y-43041596D01*
X35283403Y-43164037D01*
X35423471Y-43265802D01*
X35423475Y-43265804D01*
X35577751Y-43344411D01*
X35742413Y-43397913D01*
X35750000Y-43399114D01*
X35750000Y-42330330D01*
X35769745Y-42350075D01*
X35855255Y-42399444D01*
X35950630Y-42425000D01*
X36049370Y-42425000D01*
X36144745Y-42399444D01*
X36230255Y-42350075D01*
X36250000Y-42330330D01*
X36250000Y-43399114D01*
X36257586Y-43397913D01*
X36422248Y-43344411D01*
X36576524Y-43265804D01*
X36576528Y-43265802D01*
X36716596Y-43164037D01*
X36839037Y-43041596D01*
X36940802Y-42901528D01*
X36940806Y-42901520D01*
X36988376Y-42808158D01*
X37031640Y-42764893D01*
X37092072Y-42755321D01*
X37146589Y-42783098D01*
X37169344Y-42818505D01*
X37206203Y-42917330D01*
X37242929Y-42966390D01*
X37292454Y-43032546D01*
X37292457Y-43032548D01*
X37292458Y-43032549D01*
X37407670Y-43118797D01*
X37542511Y-43169089D01*
X37542512Y-43169089D01*
X37542517Y-43169091D01*
X37602127Y-43175500D01*
X38397872Y-43175499D01*
X38457483Y-43169091D01*
X38524907Y-43143943D01*
X38592329Y-43118797D01*
X38592329Y-43118796D01*
X38592331Y-43118796D01*
X38707546Y-43032546D01*
X38793796Y-42917331D01*
X38800073Y-42900503D01*
X38839871Y-42793797D01*
X38844091Y-42782483D01*
X38850500Y-42722873D01*
X38850499Y-42000630D01*
X38850499Y-41688424D01*
X41900000Y-41688424D01*
X41900000Y-41799999D01*
X41900001Y-41800000D01*
X42719670Y-41800000D01*
X42699925Y-41819745D01*
X42650556Y-41905255D01*
X42625000Y-42000630D01*
X42625000Y-42099370D01*
X42650556Y-42194745D01*
X42699925Y-42280255D01*
X42719670Y-42300000D01*
X41900001Y-42300000D01*
X41900000Y-42300001D01*
X41900000Y-42411575D01*
X41927084Y-42582579D01*
X41980588Y-42747248D01*
X42059195Y-42901524D01*
X42059197Y-42901528D01*
X42160962Y-43041596D01*
X42283403Y-43164037D01*
X42423471Y-43265802D01*
X42423475Y-43265804D01*
X42577751Y-43344411D01*
X42742413Y-43397913D01*
X42750000Y-43399114D01*
X42750000Y-42330330D01*
X42769745Y-42350075D01*
X42855255Y-42399444D01*
X42950630Y-42425000D01*
X43049370Y-42425000D01*
X43144745Y-42399444D01*
X43230255Y-42350075D01*
X43250000Y-42330330D01*
X43250000Y-43399114D01*
X43257586Y-43397913D01*
X43422248Y-43344411D01*
X43576524Y-43265804D01*
X43576528Y-43265802D01*
X43716596Y-43164037D01*
X43839037Y-43041596D01*
X43940802Y-42901528D01*
X43940806Y-42901520D01*
X43988376Y-42808158D01*
X44031640Y-42764893D01*
X44092072Y-42755321D01*
X44146589Y-42783098D01*
X44169344Y-42818505D01*
X44206203Y-42917330D01*
X44242929Y-42966390D01*
X44292454Y-43032546D01*
X44292457Y-43032548D01*
X44292458Y-43032549D01*
X44407670Y-43118797D01*
X44542511Y-43169089D01*
X44542512Y-43169089D01*
X44542517Y-43169091D01*
X44602127Y-43175500D01*
X45397872Y-43175499D01*
X45457483Y-43169091D01*
X45524907Y-43143943D01*
X45592329Y-43118797D01*
X45592329Y-43118796D01*
X45592331Y-43118796D01*
X45707546Y-43032546D01*
X45707551Y-43032538D01*
X45710595Y-43029496D01*
X45765112Y-43001719D01*
X45780599Y-43000500D01*
X54065890Y-43000500D01*
X54065892Y-43000500D01*
X54193186Y-42966392D01*
X54193188Y-42966390D01*
X54193190Y-42966390D01*
X54307309Y-42900503D01*
X54307309Y-42900502D01*
X54307314Y-42900500D01*
X55429999Y-41777814D01*
X55484512Y-41750040D01*
X55544944Y-41759611D01*
X55570003Y-41777817D01*
X56099500Y-42307314D01*
X56099499Y-42307314D01*
X56192684Y-42400499D01*
X56235121Y-42425000D01*
X56250897Y-42434108D01*
X56306814Y-42466392D01*
X56434107Y-42500500D01*
X56434108Y-42500500D01*
X56434109Y-42500500D01*
X64240890Y-42500500D01*
X64240892Y-42500500D01*
X64368186Y-42466392D01*
X64368188Y-42466390D01*
X64368190Y-42466390D01*
X64482309Y-42400503D01*
X64482309Y-42400502D01*
X64482314Y-42400500D01*
X65280684Y-41602129D01*
X69324500Y-41602129D01*
X69324500Y-42397866D01*
X69324500Y-42397869D01*
X69324501Y-42397872D01*
X69324784Y-42400500D01*
X69330908Y-42457480D01*
X69330909Y-42457485D01*
X69381202Y-42592329D01*
X69467450Y-42707541D01*
X69467454Y-42707546D01*
X69467457Y-42707548D01*
X69467458Y-42707549D01*
X69582670Y-42793797D01*
X69717511Y-42844089D01*
X69717512Y-42844089D01*
X69717517Y-42844091D01*
X69777127Y-42850500D01*
X71122872Y-42850499D01*
X71182483Y-42844091D01*
X71251083Y-42818505D01*
X71317329Y-42793797D01*
X71317329Y-42793796D01*
X71317331Y-42793796D01*
X71432546Y-42707546D01*
X71518796Y-42592331D01*
X71569091Y-42457483D01*
X71575500Y-42397873D01*
X71575499Y-41602128D01*
X71569091Y-41542517D01*
X71569089Y-41542511D01*
X71518797Y-41407670D01*
X71432549Y-41292458D01*
X71432548Y-41292457D01*
X71432546Y-41292454D01*
X71431727Y-41291841D01*
X71317329Y-41206202D01*
X71182488Y-41155910D01*
X71182483Y-41155909D01*
X71182481Y-41155908D01*
X71182477Y-41155908D01*
X71151249Y-41152550D01*
X71122873Y-41149500D01*
X71122870Y-41149500D01*
X69777133Y-41149500D01*
X69777129Y-41149500D01*
X69777128Y-41149501D01*
X69769949Y-41150272D01*
X69717519Y-41155908D01*
X69717514Y-41155909D01*
X69582670Y-41206202D01*
X69467458Y-41292450D01*
X69467450Y-41292458D01*
X69381202Y-41407670D01*
X69330910Y-41542511D01*
X69330908Y-41542522D01*
X69324500Y-41602129D01*
X65280684Y-41602129D01*
X65669611Y-41213201D01*
X65706970Y-41191637D01*
X65706486Y-41190469D01*
X65712481Y-41187985D01*
X65712480Y-41187985D01*
X65712485Y-41187984D01*
X65838015Y-41115509D01*
X65940509Y-41013015D01*
X65984996Y-40935962D01*
X66012982Y-40887489D01*
X66012982Y-40887487D01*
X66012984Y-40887485D01*
X66050500Y-40747475D01*
X66050500Y-40602525D01*
X66012984Y-40462515D01*
X66012982Y-40462512D01*
X66012982Y-40462510D01*
X65940512Y-40336989D01*
X65940510Y-40336987D01*
X65940509Y-40336985D01*
X65838015Y-40234491D01*
X65838012Y-40234489D01*
X65838010Y-40234487D01*
X65712488Y-40162017D01*
X65712489Y-40162017D01*
X65682896Y-40154087D01*
X65572475Y-40124500D01*
X65427525Y-40124500D01*
X65365790Y-40141041D01*
X65287510Y-40162017D01*
X65161989Y-40234487D01*
X65059490Y-40336986D01*
X64987014Y-40462519D01*
X64984533Y-40468510D01*
X64983369Y-40468027D01*
X64961798Y-40505385D01*
X63996682Y-41470503D01*
X63942165Y-41498281D01*
X63926678Y-41499500D01*
X56748322Y-41499500D01*
X56690131Y-41480593D01*
X56678318Y-41470504D01*
X56277817Y-41070003D01*
X56250040Y-41015486D01*
X56259611Y-40955054D01*
X56277811Y-40930002D01*
X57291584Y-39916230D01*
X69324500Y-39916230D01*
X69324500Y-40083769D01*
X69357183Y-40248079D01*
X69357185Y-40248085D01*
X69421296Y-40402862D01*
X69421297Y-40402863D01*
X69514374Y-40542162D01*
X69632838Y-40660626D01*
X69772137Y-40753703D01*
X69926918Y-40817816D01*
X70091233Y-40850500D01*
X70091234Y-40850500D01*
X70808766Y-40850500D01*
X70808767Y-40850500D01*
X70973082Y-40817816D01*
X71127863Y-40753703D01*
X71267162Y-40660626D01*
X71385626Y-40542162D01*
X71478703Y-40402863D01*
X71542816Y-40248082D01*
X71575500Y-40083767D01*
X71575500Y-39916233D01*
X71542816Y-39751918D01*
X71478703Y-39597137D01*
X71385626Y-39457838D01*
X71267162Y-39339374D01*
X71174084Y-39277181D01*
X71127862Y-39246296D01*
X70973085Y-39182185D01*
X70973079Y-39182183D01*
X70808769Y-39149500D01*
X70808767Y-39149500D01*
X70091233Y-39149500D01*
X70091230Y-39149500D01*
X69926920Y-39182183D01*
X69926914Y-39182185D01*
X69772137Y-39246296D01*
X69632838Y-39339374D01*
X69632834Y-39339377D01*
X69514377Y-39457834D01*
X69514374Y-39457838D01*
X69421296Y-39597137D01*
X69357185Y-39751914D01*
X69357183Y-39751920D01*
X69324500Y-39916230D01*
X57291584Y-39916230D01*
X57400500Y-39807314D01*
X57466392Y-39693186D01*
X57500500Y-39565893D01*
X57500500Y-39434108D01*
X57500500Y-39415845D01*
X64637706Y-39415845D01*
X64766645Y-39469255D01*
X64766651Y-39469257D01*
X64921204Y-39499999D01*
X64921208Y-39500000D01*
X65078792Y-39500000D01*
X65078795Y-39499999D01*
X65233348Y-39469257D01*
X65233354Y-39469255D01*
X65362292Y-39415846D01*
X65362291Y-39415845D01*
X65637706Y-39415845D01*
X65766645Y-39469255D01*
X65766651Y-39469257D01*
X65921204Y-39499999D01*
X65921208Y-39500000D01*
X66078792Y-39500000D01*
X66078795Y-39499999D01*
X66233348Y-39469257D01*
X66233354Y-39469255D01*
X66362292Y-39415846D01*
X65999999Y-39053553D01*
X65637706Y-39415845D01*
X65362291Y-39415845D01*
X64999999Y-39053553D01*
X64637706Y-39415845D01*
X57500500Y-39415845D01*
X57500500Y-38621204D01*
X64200000Y-38621204D01*
X64200000Y-38778795D01*
X64230742Y-38933349D01*
X64284152Y-39062292D01*
X64646446Y-38699999D01*
X64616610Y-38670163D01*
X64850000Y-38670163D01*
X64850000Y-38729837D01*
X64872836Y-38784968D01*
X64915032Y-38827164D01*
X64970163Y-38850000D01*
X65029837Y-38850000D01*
X65084968Y-38827164D01*
X65127164Y-38784968D01*
X65150000Y-38729837D01*
X65150000Y-38700000D01*
X65353553Y-38700000D01*
X65499999Y-38846445D01*
X65646446Y-38699999D01*
X65616610Y-38670163D01*
X65850000Y-38670163D01*
X65850000Y-38729837D01*
X65872836Y-38784968D01*
X65915032Y-38827164D01*
X65970163Y-38850000D01*
X66029837Y-38850000D01*
X66084968Y-38827164D01*
X66127164Y-38784968D01*
X66150000Y-38729837D01*
X66150000Y-38699999D01*
X66353553Y-38699999D01*
X66715846Y-39062292D01*
X66769255Y-38933354D01*
X66769257Y-38933348D01*
X66799999Y-38778795D01*
X66800000Y-38778792D01*
X66800000Y-38621207D01*
X66799999Y-38621204D01*
X66769257Y-38466651D01*
X66769255Y-38466645D01*
X66715845Y-38337706D01*
X66353553Y-38699999D01*
X66150000Y-38699999D01*
X66150000Y-38670163D01*
X66127164Y-38615032D01*
X66084968Y-38572836D01*
X66029837Y-38550000D01*
X65970163Y-38550000D01*
X65915032Y-38572836D01*
X65872836Y-38615032D01*
X65850000Y-38670163D01*
X65616610Y-38670163D01*
X65500000Y-38553553D01*
X65353553Y-38700000D01*
X65150000Y-38700000D01*
X65150000Y-38670163D01*
X65127164Y-38615032D01*
X65084968Y-38572836D01*
X65029837Y-38550000D01*
X64970163Y-38550000D01*
X64915032Y-38572836D01*
X64872836Y-38615032D01*
X64850000Y-38670163D01*
X64616610Y-38670163D01*
X64284153Y-38337706D01*
X64284152Y-38337706D01*
X64230743Y-38466647D01*
X64230743Y-38466649D01*
X64200000Y-38621204D01*
X57500500Y-38621204D01*
X57500500Y-38100000D01*
X64753553Y-38100000D01*
X64999999Y-38346445D01*
X65246445Y-38100000D01*
X65753553Y-38100000D01*
X65999999Y-38346445D01*
X66246446Y-38099999D01*
X66000000Y-37853553D01*
X65753553Y-38100000D01*
X65246445Y-38100000D01*
X65246446Y-38099999D01*
X65000000Y-37853553D01*
X64753553Y-38100000D01*
X57500500Y-38100000D01*
X57500500Y-37421204D01*
X64200000Y-37421204D01*
X64200000Y-37578795D01*
X64230742Y-37733349D01*
X64284152Y-37862292D01*
X64646446Y-37499999D01*
X64616610Y-37470163D01*
X64850000Y-37470163D01*
X64850000Y-37529837D01*
X64872836Y-37584968D01*
X64915032Y-37627164D01*
X64970163Y-37650000D01*
X65029837Y-37650000D01*
X65084968Y-37627164D01*
X65127164Y-37584968D01*
X65150000Y-37529837D01*
X65150000Y-37500000D01*
X65353553Y-37500000D01*
X65499999Y-37646445D01*
X65646446Y-37499999D01*
X65616610Y-37470163D01*
X65850000Y-37470163D01*
X65850000Y-37529837D01*
X65872836Y-37584968D01*
X65915032Y-37627164D01*
X65970163Y-37650000D01*
X66029837Y-37650000D01*
X66084968Y-37627164D01*
X66127164Y-37584968D01*
X66150000Y-37529837D01*
X66150000Y-37499999D01*
X66353553Y-37499999D01*
X66715846Y-37862292D01*
X66769255Y-37733354D01*
X66769257Y-37733348D01*
X66799999Y-37578795D01*
X66800000Y-37578792D01*
X66800000Y-37421207D01*
X66799999Y-37421204D01*
X66769257Y-37266651D01*
X66769255Y-37266645D01*
X66715845Y-37137706D01*
X66353553Y-37499999D01*
X66150000Y-37499999D01*
X66150000Y-37470163D01*
X66127164Y-37415032D01*
X66084968Y-37372836D01*
X66029837Y-37350000D01*
X65970163Y-37350000D01*
X65915032Y-37372836D01*
X65872836Y-37415032D01*
X65850000Y-37470163D01*
X65616610Y-37470163D01*
X65500000Y-37353553D01*
X65353553Y-37500000D01*
X65150000Y-37500000D01*
X65150000Y-37470163D01*
X65127164Y-37415032D01*
X65084968Y-37372836D01*
X65029837Y-37350000D01*
X64970163Y-37350000D01*
X64915032Y-37372836D01*
X64872836Y-37415032D01*
X64850000Y-37470163D01*
X64616610Y-37470163D01*
X64284153Y-37137706D01*
X64284152Y-37137706D01*
X64230743Y-37266647D01*
X64230743Y-37266649D01*
X64200000Y-37421204D01*
X57500500Y-37421204D01*
X57500500Y-36900000D01*
X64753553Y-36900000D01*
X64999999Y-37146445D01*
X65246445Y-36900000D01*
X65753553Y-36900000D01*
X65999999Y-37146445D01*
X66246446Y-36899999D01*
X66000000Y-36653553D01*
X65753553Y-36900000D01*
X65246445Y-36900000D01*
X65246446Y-36899999D01*
X65000000Y-36653553D01*
X64753553Y-36900000D01*
X57500500Y-36900000D01*
X57500500Y-36221204D01*
X64200000Y-36221204D01*
X64200000Y-36378795D01*
X64230742Y-36533349D01*
X64284152Y-36662292D01*
X64646446Y-36299999D01*
X64616610Y-36270163D01*
X64850000Y-36270163D01*
X64850000Y-36329837D01*
X64872836Y-36384968D01*
X64915032Y-36427164D01*
X64970163Y-36450000D01*
X65029837Y-36450000D01*
X65084968Y-36427164D01*
X65127164Y-36384968D01*
X65150000Y-36329837D01*
X65150000Y-36300000D01*
X65353553Y-36300000D01*
X65499999Y-36446445D01*
X65646446Y-36299999D01*
X65616610Y-36270163D01*
X65850000Y-36270163D01*
X65850000Y-36329837D01*
X65872836Y-36384968D01*
X65915032Y-36427164D01*
X65970163Y-36450000D01*
X66029837Y-36450000D01*
X66084968Y-36427164D01*
X66127164Y-36384968D01*
X66150000Y-36329837D01*
X66150000Y-36299999D01*
X66353553Y-36299999D01*
X66715846Y-36662292D01*
X66769255Y-36533354D01*
X66769257Y-36533348D01*
X66799999Y-36378795D01*
X66800000Y-36378792D01*
X66800000Y-36221207D01*
X66799999Y-36221204D01*
X66769257Y-36066651D01*
X66769255Y-36066645D01*
X66715845Y-35937706D01*
X66353553Y-36299999D01*
X66150000Y-36299999D01*
X66150000Y-36270163D01*
X66127164Y-36215032D01*
X66084968Y-36172836D01*
X66029837Y-36150000D01*
X65970163Y-36150000D01*
X65915032Y-36172836D01*
X65872836Y-36215032D01*
X65850000Y-36270163D01*
X65616610Y-36270163D01*
X65500000Y-36153553D01*
X65353553Y-36300000D01*
X65150000Y-36300000D01*
X65150000Y-36270163D01*
X65127164Y-36215032D01*
X65084968Y-36172836D01*
X65029837Y-36150000D01*
X64970163Y-36150000D01*
X64915032Y-36172836D01*
X64872836Y-36215032D01*
X64850000Y-36270163D01*
X64616610Y-36270163D01*
X64284153Y-35937706D01*
X64284152Y-35937706D01*
X64230743Y-36066647D01*
X64230743Y-36066649D01*
X64200000Y-36221204D01*
X57500500Y-36221204D01*
X57500500Y-35584152D01*
X64637706Y-35584152D01*
X64637706Y-35584153D01*
X64999999Y-35946445D01*
X65362292Y-35584152D01*
X65637706Y-35584152D01*
X65637706Y-35584153D01*
X65999999Y-35946445D01*
X66362292Y-35584152D01*
X66233349Y-35530742D01*
X66078795Y-35500000D01*
X65921204Y-35500000D01*
X65766649Y-35530743D01*
X65766647Y-35530743D01*
X65637706Y-35584152D01*
X65362292Y-35584152D01*
X65233349Y-35530742D01*
X65078795Y-35500000D01*
X64921204Y-35500000D01*
X64766649Y-35530743D01*
X64766647Y-35530743D01*
X64637706Y-35584152D01*
X57500500Y-35584152D01*
X57500500Y-34416230D01*
X70374500Y-34416230D01*
X70374500Y-34583769D01*
X70407183Y-34748079D01*
X70407185Y-34748085D01*
X70471296Y-34902862D01*
X70471297Y-34902863D01*
X70564374Y-35042162D01*
X70682838Y-35160626D01*
X70822137Y-35253703D01*
X70976918Y-35317816D01*
X71141233Y-35350500D01*
X71141234Y-35350500D01*
X71858766Y-35350500D01*
X71858767Y-35350500D01*
X72023082Y-35317816D01*
X72177863Y-35253703D01*
X72317162Y-35160626D01*
X72435626Y-35042162D01*
X72528703Y-34902863D01*
X72592816Y-34748082D01*
X72625500Y-34583767D01*
X72625500Y-34416233D01*
X72592816Y-34251918D01*
X72528703Y-34097137D01*
X72435626Y-33957838D01*
X72317162Y-33839374D01*
X72177863Y-33746297D01*
X72177864Y-33746297D01*
X72177862Y-33746296D01*
X72023085Y-33682185D01*
X72023079Y-33682183D01*
X71858769Y-33649500D01*
X71858767Y-33649500D01*
X71141233Y-33649500D01*
X71141230Y-33649500D01*
X70976920Y-33682183D01*
X70976914Y-33682185D01*
X70822137Y-33746296D01*
X70682838Y-33839374D01*
X70682834Y-33839377D01*
X70564377Y-33957834D01*
X70564374Y-33957838D01*
X70471296Y-34097137D01*
X70407185Y-34251914D01*
X70407183Y-34251920D01*
X70374500Y-34416230D01*
X57500500Y-34416230D01*
X57500500Y-33248321D01*
X57519407Y-33190130D01*
X57529490Y-33178323D01*
X58169611Y-32538201D01*
X58206970Y-32516637D01*
X58206486Y-32515469D01*
X58212481Y-32512985D01*
X58212480Y-32512985D01*
X58212485Y-32512984D01*
X58338015Y-32440509D01*
X58440509Y-32338015D01*
X58440512Y-32338010D01*
X58512982Y-32212489D01*
X58512982Y-32212487D01*
X58512984Y-32212485D01*
X58542554Y-32102129D01*
X70374500Y-32102129D01*
X70374500Y-32897866D01*
X70374501Y-32897870D01*
X70380908Y-32957480D01*
X70380909Y-32957485D01*
X70431202Y-33092329D01*
X70495573Y-33178317D01*
X70517454Y-33207546D01*
X70517457Y-33207548D01*
X70517458Y-33207549D01*
X70632670Y-33293797D01*
X70767511Y-33344089D01*
X70767512Y-33344089D01*
X70767517Y-33344091D01*
X70827127Y-33350500D01*
X72172872Y-33350499D01*
X72232483Y-33344091D01*
X72359776Y-33296614D01*
X72367329Y-33293797D01*
X72367329Y-33293796D01*
X72367331Y-33293796D01*
X72482546Y-33207546D01*
X72568796Y-33092331D01*
X72585658Y-33047123D01*
X72619089Y-32957488D01*
X72619090Y-32957485D01*
X72619091Y-32957483D01*
X72625500Y-32897873D01*
X72625499Y-32102128D01*
X72619091Y-32042517D01*
X72613023Y-32026248D01*
X72568797Y-31907670D01*
X72482549Y-31792458D01*
X72482548Y-31792457D01*
X72482546Y-31792454D01*
X72475954Y-31787519D01*
X72367329Y-31706202D01*
X72232488Y-31655910D01*
X72232483Y-31655909D01*
X72232481Y-31655908D01*
X72232477Y-31655908D01*
X72201249Y-31652550D01*
X72172873Y-31649500D01*
X72172870Y-31649500D01*
X70827133Y-31649500D01*
X70827129Y-31649500D01*
X70827128Y-31649501D01*
X70819949Y-31650272D01*
X70767519Y-31655908D01*
X70767514Y-31655909D01*
X70632670Y-31706202D01*
X70517458Y-31792450D01*
X70517450Y-31792458D01*
X70431202Y-31907670D01*
X70380910Y-32042511D01*
X70380908Y-32042522D01*
X70374500Y-32102129D01*
X58542554Y-32102129D01*
X58550500Y-32072475D01*
X58550500Y-31927525D01*
X58512984Y-31787515D01*
X58512982Y-31787512D01*
X58512982Y-31787510D01*
X58440512Y-31661989D01*
X58440510Y-31661987D01*
X58440509Y-31661985D01*
X58338015Y-31559491D01*
X58338012Y-31559489D01*
X58338010Y-31559487D01*
X58212488Y-31487017D01*
X58212489Y-31487017D01*
X58182896Y-31479087D01*
X58072475Y-31449500D01*
X57927525Y-31449500D01*
X57865790Y-31466041D01*
X57787510Y-31487017D01*
X57661989Y-31559487D01*
X57559490Y-31661986D01*
X57487014Y-31787519D01*
X57484533Y-31793510D01*
X57483369Y-31793027D01*
X57461798Y-31830385D01*
X56701682Y-32590503D01*
X56647165Y-32618281D01*
X56631678Y-32619500D01*
X56186190Y-32619500D01*
X56127999Y-32600593D01*
X56116186Y-32590504D01*
X55894496Y-32368814D01*
X55866719Y-32314297D01*
X55865500Y-32298810D01*
X55865500Y-25047824D01*
X71099999Y-25047824D01*
X71106401Y-25107370D01*
X71106403Y-25107381D01*
X71156646Y-25242088D01*
X71156647Y-25242090D01*
X71242807Y-25357184D01*
X71242815Y-25357192D01*
X71357909Y-25443352D01*
X71357911Y-25443353D01*
X71492618Y-25493596D01*
X71492629Y-25493598D01*
X71552176Y-25500000D01*
X71949999Y-25500000D01*
X71950000Y-25499999D01*
X71950000Y-24000001D01*
X72450000Y-24000001D01*
X72450000Y-25499999D01*
X72450001Y-25500000D01*
X72847824Y-25500000D01*
X72907370Y-25493598D01*
X72907381Y-25493596D01*
X73042088Y-25443353D01*
X73042090Y-25443352D01*
X73157184Y-25357192D01*
X73157192Y-25357184D01*
X73243352Y-25242090D01*
X73243353Y-25242088D01*
X73293596Y-25107381D01*
X73293598Y-25107370D01*
X73300000Y-25047824D01*
X73300000Y-24000001D01*
X73299999Y-24000000D01*
X72450001Y-24000000D01*
X72450000Y-24000001D01*
X71950000Y-24000001D01*
X71949999Y-24000000D01*
X71100001Y-24000000D01*
X71100000Y-24000001D01*
X71100000Y-25047824D01*
X71099999Y-25047824D01*
X55865500Y-25047824D01*
X55865500Y-22968857D01*
X55865500Y-22968856D01*
X55841614Y-22879712D01*
X55841612Y-22879709D01*
X55841612Y-22879707D01*
X55795472Y-22799791D01*
X55795470Y-22799789D01*
X55795469Y-22799787D01*
X55447857Y-22452175D01*
X71100000Y-22452175D01*
X71100000Y-23499999D01*
X71100001Y-23500000D01*
X71949999Y-23500000D01*
X71950000Y-23499999D01*
X71950000Y-22000001D01*
X72450000Y-22000001D01*
X72450000Y-23499999D01*
X72450001Y-23500000D01*
X73299999Y-23500000D01*
X73300000Y-23499999D01*
X73300000Y-22452175D01*
X73293598Y-22392629D01*
X73293596Y-22392618D01*
X73243353Y-22257911D01*
X73243352Y-22257909D01*
X73157192Y-22142815D01*
X73157184Y-22142807D01*
X73042090Y-22056647D01*
X73042088Y-22056646D01*
X72907381Y-22006403D01*
X72907370Y-22006401D01*
X72847824Y-22000000D01*
X72450001Y-22000000D01*
X72450000Y-22000001D01*
X71950000Y-22000001D01*
X71949999Y-22000000D01*
X71552176Y-22000000D01*
X71492629Y-22006401D01*
X71492618Y-22006403D01*
X71357911Y-22056646D01*
X71357909Y-22056647D01*
X71242815Y-22142807D01*
X71242807Y-22142815D01*
X71156647Y-22257909D01*
X71156646Y-22257911D01*
X71106403Y-22392618D01*
X71106401Y-22392629D01*
X71100000Y-22452175D01*
X55447857Y-22452175D01*
X53397138Y-20401456D01*
X61499500Y-20401456D01*
X61499500Y-20598543D01*
X61537949Y-20791834D01*
X61537949Y-20791836D01*
X61613367Y-20973913D01*
X61613368Y-20973914D01*
X61722861Y-21137782D01*
X61862218Y-21277139D01*
X62026086Y-21386632D01*
X62208165Y-21462051D01*
X62401459Y-21500500D01*
X62401460Y-21500500D01*
X62598540Y-21500500D01*
X62598541Y-21500500D01*
X62791835Y-21462051D01*
X62973914Y-21386632D01*
X63137782Y-21277139D01*
X63277139Y-21137782D01*
X63386632Y-20973914D01*
X63462051Y-20791835D01*
X63500500Y-20598541D01*
X63500500Y-20401459D01*
X63462051Y-20208165D01*
X63386632Y-20026086D01*
X63277139Y-19862218D01*
X63137782Y-19722861D01*
X62973914Y-19613368D01*
X62973915Y-19613368D01*
X62973913Y-19613367D01*
X62791835Y-19537949D01*
X62598543Y-19499500D01*
X62598541Y-19499500D01*
X62401459Y-19499500D01*
X62401456Y-19499500D01*
X62208165Y-19537949D01*
X62208163Y-19537949D01*
X62026086Y-19613367D01*
X61862218Y-19722861D01*
X61862214Y-19722864D01*
X61722864Y-19862214D01*
X61722861Y-19862218D01*
X61613367Y-20026086D01*
X61537949Y-20208163D01*
X61537949Y-20208165D01*
X61499500Y-20401456D01*
X53397138Y-20401456D01*
X51715212Y-18719530D01*
X51635288Y-18673386D01*
X51546144Y-18649500D01*
X51546142Y-18649500D01*
X48379499Y-18649500D01*
X48321308Y-18630593D01*
X48285344Y-18581093D01*
X48280499Y-18550500D01*
X48280499Y-18179521D01*
X48280499Y-18179518D01*
X48280499Y-18179516D01*
X48274412Y-18122886D01*
X48226628Y-17994774D01*
X48144687Y-17885313D01*
X48043279Y-17809400D01*
X48035228Y-17803373D01*
X48035226Y-17803372D01*
X47907114Y-17755588D01*
X47907113Y-17755587D01*
X47868895Y-17751479D01*
X47850485Y-17749500D01*
X47850481Y-17749500D01*
X46709521Y-17749500D01*
X46709515Y-17749501D01*
X46652888Y-17755587D01*
X46652886Y-17755588D01*
X46524774Y-17803372D01*
X46524773Y-17803372D01*
X46524772Y-17803373D01*
X46415315Y-17885311D01*
X46415311Y-17885315D01*
X46333373Y-17994771D01*
X46285587Y-18122887D01*
X46279500Y-18179518D01*
X46279500Y-19820478D01*
X46279501Y-19820484D01*
X46285587Y-19877111D01*
X46285587Y-19877112D01*
X46285588Y-19877114D01*
X46333372Y-20005226D01*
X46333373Y-20005228D01*
X46354498Y-20033447D01*
X46374235Y-20091362D01*
X46356161Y-20149817D01*
X46327220Y-20177035D01*
X46302271Y-20192424D01*
X46182425Y-20312270D01*
X46093454Y-20456512D01*
X46040143Y-20617396D01*
X46030000Y-20716676D01*
X46030000Y-21289999D01*
X46030001Y-21290000D01*
X48529998Y-21290000D01*
X48529999Y-21289999D01*
X48529999Y-20716677D01*
X48519857Y-20617402D01*
X48519854Y-20617390D01*
X48466545Y-20456512D01*
X48377574Y-20312270D01*
X48257729Y-20192425D01*
X48232780Y-20177036D01*
X48193179Y-20130394D01*
X48188557Y-20069383D01*
X48205502Y-20033447D01*
X48226628Y-20005226D01*
X48274412Y-19877114D01*
X48280500Y-19820485D01*
X48280500Y-19449500D01*
X48299407Y-19391309D01*
X48348907Y-19355345D01*
X48379500Y-19350500D01*
X51313810Y-19350500D01*
X51372001Y-19369407D01*
X51383814Y-19379496D01*
X55135504Y-23131186D01*
X55163281Y-23185703D01*
X55164500Y-23201190D01*
X55164500Y-32531146D01*
X55176817Y-32577111D01*
X55176817Y-32577113D01*
X55176818Y-32577113D01*
X55176818Y-32577114D01*
X55188386Y-32620288D01*
X55234530Y-32700212D01*
X55784788Y-33250470D01*
X55828115Y-33275484D01*
X55859832Y-33293797D01*
X55859831Y-33293797D01*
X55864210Y-33296324D01*
X55864712Y-33296614D01*
X55953856Y-33320500D01*
X55953857Y-33320500D01*
X56046144Y-33320500D01*
X56400500Y-33320500D01*
X56458691Y-33339407D01*
X56494655Y-33388907D01*
X56499500Y-33419500D01*
X56499500Y-39251678D01*
X56480593Y-39309869D01*
X56470504Y-39321682D01*
X53821682Y-41970504D01*
X53767165Y-41998281D01*
X53751678Y-41999500D01*
X45949499Y-41999500D01*
X45891308Y-41980593D01*
X45855344Y-41931093D01*
X45850499Y-41900500D01*
X45850499Y-41377133D01*
X45850499Y-41377128D01*
X45844091Y-41317517D01*
X45834742Y-41292450D01*
X45793797Y-41182670D01*
X45707549Y-41067458D01*
X45707548Y-41067457D01*
X45707546Y-41067454D01*
X45707541Y-41067450D01*
X45592329Y-40981202D01*
X45457488Y-40930910D01*
X45457483Y-40930909D01*
X45457481Y-40930908D01*
X45457477Y-40930908D01*
X45426249Y-40927550D01*
X45397873Y-40924500D01*
X45397870Y-40924500D01*
X44602133Y-40924500D01*
X44602129Y-40924500D01*
X44602128Y-40924501D01*
X44594949Y-40925272D01*
X44542519Y-40930908D01*
X44542514Y-40930909D01*
X44407670Y-40981202D01*
X44292458Y-41067450D01*
X44292450Y-41067458D01*
X44206203Y-41182669D01*
X44169344Y-41281494D01*
X44131293Y-41329408D01*
X44072346Y-41345806D01*
X44015019Y-41324424D01*
X43988376Y-41291841D01*
X43940807Y-41198480D01*
X43940802Y-41198471D01*
X43839037Y-41058403D01*
X43716596Y-40935962D01*
X43576528Y-40834197D01*
X43576524Y-40834195D01*
X43422248Y-40755588D01*
X43257586Y-40702086D01*
X43250000Y-40700884D01*
X43250000Y-41769670D01*
X43230255Y-41749925D01*
X43144745Y-41700556D01*
X43049370Y-41675000D01*
X42950630Y-41675000D01*
X42855255Y-41700556D01*
X42769745Y-41749925D01*
X42750000Y-41769670D01*
X42750000Y-40700884D01*
X42742413Y-40702086D01*
X42577751Y-40755588D01*
X42423475Y-40834195D01*
X42423471Y-40834197D01*
X42283403Y-40935962D01*
X42160962Y-41058403D01*
X42059197Y-41198471D01*
X42059195Y-41198475D01*
X41980588Y-41352751D01*
X41927084Y-41517420D01*
X41900000Y-41688424D01*
X38850499Y-41688424D01*
X38850499Y-41684538D01*
X38850499Y-41377133D01*
X38850499Y-41377128D01*
X38844091Y-41317517D01*
X38834742Y-41292450D01*
X38793797Y-41182670D01*
X38707549Y-41067458D01*
X38707548Y-41067457D01*
X38707546Y-41067454D01*
X38707541Y-41067450D01*
X38592329Y-40981202D01*
X38457488Y-40930910D01*
X38457483Y-40930909D01*
X38457481Y-40930908D01*
X38457477Y-40930908D01*
X38426249Y-40927550D01*
X38397873Y-40924500D01*
X38397870Y-40924500D01*
X37602133Y-40924500D01*
X37602129Y-40924500D01*
X37602128Y-40924501D01*
X37594949Y-40925272D01*
X37542519Y-40930908D01*
X37542514Y-40930909D01*
X37407670Y-40981202D01*
X37292458Y-41067450D01*
X37292450Y-41067458D01*
X37206203Y-41182669D01*
X37169344Y-41281494D01*
X37131293Y-41329408D01*
X37072346Y-41345806D01*
X37015019Y-41324424D01*
X36988376Y-41291841D01*
X36940807Y-41198480D01*
X36940802Y-41198471D01*
X36839037Y-41058403D01*
X36716596Y-40935962D01*
X36576528Y-40834197D01*
X36576524Y-40834195D01*
X36422248Y-40755588D01*
X36257586Y-40702086D01*
X36250000Y-40700884D01*
X36250000Y-41769670D01*
X36230255Y-41749925D01*
X36144745Y-41700556D01*
X36049370Y-41675000D01*
X35950630Y-41675000D01*
X35855255Y-41700556D01*
X35769745Y-41749925D01*
X35750000Y-41769670D01*
X35750000Y-40700884D01*
X35742413Y-40702086D01*
X35577751Y-40755588D01*
X35423475Y-40834195D01*
X35423471Y-40834197D01*
X35283403Y-40935962D01*
X35160962Y-41058403D01*
X35059197Y-41198471D01*
X35059195Y-41198475D01*
X34980588Y-41352751D01*
X34927084Y-41517420D01*
X34900000Y-41688424D01*
X24500500Y-41688424D01*
X24500500Y-41684538D01*
X24500501Y-39597137D01*
X24500501Y-33105313D01*
X24519408Y-33047123D01*
X24568908Y-33011159D01*
X24630094Y-33011159D01*
X24679594Y-33047123D01*
X24685231Y-33055803D01*
X24719530Y-33115211D01*
X26124789Y-34520470D01*
X26152724Y-34536598D01*
X26180659Y-34552727D01*
X26180660Y-34552727D01*
X26204713Y-34566614D01*
X26293857Y-34590500D01*
X26293858Y-34590500D01*
X26386145Y-34590500D01*
X28400501Y-34590500D01*
X28458692Y-34609407D01*
X28494656Y-34658907D01*
X28499501Y-34689500D01*
X28499501Y-35060484D01*
X28505587Y-35117111D01*
X28505587Y-35117112D01*
X28505588Y-35117114D01*
X28553372Y-35245226D01*
X28635313Y-35354687D01*
X28744774Y-35436628D01*
X28872886Y-35484412D01*
X28929515Y-35490500D01*
X30070484Y-35490499D01*
X30127114Y-35484412D01*
X30255226Y-35436628D01*
X30364687Y-35354687D01*
X30446628Y-35245226D01*
X30494412Y-35117114D01*
X30500500Y-35060485D01*
X30500499Y-33419516D01*
X30494412Y-33362886D01*
X30446628Y-33234774D01*
X30364687Y-33125313D01*
X30263082Y-33049253D01*
X30227829Y-32999245D01*
X30228703Y-32938066D01*
X30263083Y-32890746D01*
X30364687Y-32814687D01*
X30446628Y-32705226D01*
X30494412Y-32577114D01*
X30500500Y-32520485D01*
X30500499Y-31927525D01*
X37949500Y-31927525D01*
X37949500Y-32072475D01*
X37970139Y-32149500D01*
X37987017Y-32212489D01*
X38059487Y-32338010D01*
X38059489Y-32338012D01*
X38059491Y-32338015D01*
X38161985Y-32440509D01*
X38161987Y-32440510D01*
X38161989Y-32440512D01*
X38287511Y-32512982D01*
X38287512Y-32512982D01*
X38287515Y-32512984D01*
X38427525Y-32550500D01*
X38427526Y-32550500D01*
X38572474Y-32550500D01*
X38572475Y-32550500D01*
X38712485Y-32512984D01*
X38712487Y-32512982D01*
X38712489Y-32512982D01*
X38838010Y-32440512D01*
X38838010Y-32440511D01*
X38838015Y-32440509D01*
X38940509Y-32338015D01*
X38940512Y-32338010D01*
X39012982Y-32212489D01*
X39012982Y-32212487D01*
X39012984Y-32212485D01*
X39050500Y-32072475D01*
X39050500Y-31927525D01*
X39012984Y-31787515D01*
X39012982Y-31787512D01*
X39012982Y-31787510D01*
X38940512Y-31661989D01*
X38940510Y-31661987D01*
X38940509Y-31661985D01*
X38838015Y-31559491D01*
X38838012Y-31559489D01*
X38838010Y-31559487D01*
X38712488Y-31487017D01*
X38712489Y-31487017D01*
X38682896Y-31479087D01*
X38572475Y-31449500D01*
X38427525Y-31449500D01*
X38365790Y-31466041D01*
X38287510Y-31487017D01*
X38161989Y-31559487D01*
X38059487Y-31661989D01*
X37987017Y-31787510D01*
X37980554Y-31811632D01*
X37949500Y-31927525D01*
X30500499Y-31927525D01*
X30500499Y-31661989D01*
X30500499Y-30879521D01*
X30500499Y-30879518D01*
X30500499Y-30879516D01*
X30494412Y-30822886D01*
X30446628Y-30694774D01*
X30364687Y-30585313D01*
X30289131Y-30528753D01*
X30253878Y-30478745D01*
X30254752Y-30417566D01*
X30291419Y-30368585D01*
X30348460Y-30350500D01*
X30813810Y-30350500D01*
X30872001Y-30369407D01*
X30883814Y-30379496D01*
X31784788Y-31280470D01*
X31855139Y-31321087D01*
X31864712Y-31326614D01*
X31953856Y-31350500D01*
X31953857Y-31350500D01*
X31953858Y-31350500D01*
X37546142Y-31350500D01*
X37546144Y-31350500D01*
X37635288Y-31326614D01*
X37644858Y-31321088D01*
X37644860Y-31321088D01*
X37663710Y-31310204D01*
X37715212Y-31280470D01*
X39068156Y-29927525D01*
X40949500Y-29927525D01*
X40949500Y-30072475D01*
X40967911Y-30141185D01*
X40987017Y-30212489D01*
X41059487Y-30338010D01*
X41059489Y-30338012D01*
X41059491Y-30338015D01*
X41161985Y-30440509D01*
X41161987Y-30440510D01*
X41161989Y-30440512D01*
X41287511Y-30512982D01*
X41287512Y-30512982D01*
X41287515Y-30512984D01*
X41427525Y-30550500D01*
X41427526Y-30550500D01*
X41572474Y-30550500D01*
X41572475Y-30550500D01*
X41712485Y-30512984D01*
X41712487Y-30512982D01*
X41712489Y-30512982D01*
X41838010Y-30440512D01*
X41838010Y-30440511D01*
X41838015Y-30440509D01*
X41940509Y-30338015D01*
X42012984Y-30212485D01*
X42050500Y-30072475D01*
X42050500Y-29986188D01*
X42069407Y-29927997D01*
X42079490Y-29916190D01*
X43280469Y-28715212D01*
X43326614Y-28635288D01*
X43342083Y-28577555D01*
X43350500Y-28546144D01*
X43350500Y-26186190D01*
X43369407Y-26127999D01*
X43379496Y-26116186D01*
X45036186Y-24459496D01*
X45090703Y-24431719D01*
X45106190Y-24430500D01*
X46180501Y-24430500D01*
X46238692Y-24449407D01*
X46274656Y-24498907D01*
X46279501Y-24529500D01*
X46279501Y-24900484D01*
X46285587Y-24957111D01*
X46285587Y-24957112D01*
X46285588Y-24957114D01*
X46333372Y-25085226D01*
X46415313Y-25194687D01*
X46507041Y-25263353D01*
X46516917Y-25270746D01*
X46552170Y-25320755D01*
X46551296Y-25381934D01*
X46516917Y-25429253D01*
X46423499Y-25499185D01*
X46415313Y-25505313D01*
X46415311Y-25505315D01*
X46333373Y-25614771D01*
X46285587Y-25742887D01*
X46279500Y-25799518D01*
X46279500Y-26170500D01*
X46260593Y-26228691D01*
X46211093Y-26264655D01*
X46180500Y-26269500D01*
X45833856Y-26269500D01*
X45744712Y-26293386D01*
X45720928Y-26307118D01*
X45664785Y-26339532D01*
X45583813Y-26420504D01*
X45529296Y-26448281D01*
X45513810Y-26449500D01*
X45427525Y-26449500D01*
X45388343Y-26459999D01*
X45287510Y-26487017D01*
X45161989Y-26559487D01*
X45059487Y-26661989D01*
X44987017Y-26787510D01*
X44963254Y-26876195D01*
X44949500Y-26927525D01*
X44949500Y-27072475D01*
X44961213Y-27116187D01*
X44987017Y-27212489D01*
X45059487Y-27338010D01*
X45059489Y-27338012D01*
X45059491Y-27338015D01*
X45161985Y-27440509D01*
X45161987Y-27440510D01*
X45161989Y-27440512D01*
X45287511Y-27512982D01*
X45287512Y-27512982D01*
X45287515Y-27512984D01*
X45427525Y-27550500D01*
X45427526Y-27550500D01*
X45572474Y-27550500D01*
X45572475Y-27550500D01*
X45712485Y-27512984D01*
X45712487Y-27512982D01*
X45712489Y-27512982D01*
X45838010Y-27440512D01*
X45838010Y-27440511D01*
X45838015Y-27440509D01*
X45940509Y-27338015D01*
X46004633Y-27226949D01*
X46012982Y-27212489D01*
X46012982Y-27212487D01*
X46012984Y-27212485D01*
X46050500Y-27072475D01*
X46050500Y-27069500D01*
X46051158Y-27067472D01*
X46051347Y-27066042D01*
X46051612Y-27066076D01*
X46055345Y-27054588D01*
X46055345Y-27038907D01*
X46064561Y-27026221D01*
X46069407Y-27011309D01*
X46082092Y-27002092D01*
X46091309Y-26989407D01*
X46106221Y-26984561D01*
X46118907Y-26975345D01*
X46149500Y-26970500D01*
X46180501Y-26970500D01*
X46238692Y-26989407D01*
X46274656Y-27038907D01*
X46279501Y-27069500D01*
X46279501Y-27440484D01*
X46285587Y-27497111D01*
X46285587Y-27497112D01*
X46285588Y-27497114D01*
X46333372Y-27625226D01*
X46415313Y-27734687D01*
X46506540Y-27802978D01*
X46516917Y-27810746D01*
X46552170Y-27860755D01*
X46551296Y-27921934D01*
X46516917Y-27969253D01*
X46502392Y-27980127D01*
X46415313Y-28045313D01*
X46415311Y-28045315D01*
X46333373Y-28154771D01*
X46285587Y-28282887D01*
X46279500Y-28339518D01*
X46279500Y-28710500D01*
X46260593Y-28768691D01*
X46211093Y-28804655D01*
X46180500Y-28809500D01*
X45793856Y-28809500D01*
X45729986Y-28826614D01*
X45729985Y-28826613D01*
X45704713Y-28833385D01*
X45624785Y-28879532D01*
X45383813Y-29120504D01*
X45329297Y-29148281D01*
X45313810Y-29149500D01*
X44969032Y-29149500D01*
X44910841Y-29130593D01*
X44899029Y-29120504D01*
X44838015Y-29059491D01*
X44838010Y-29059487D01*
X44712488Y-28987017D01*
X44712489Y-28987017D01*
X44682896Y-28979087D01*
X44572475Y-28949500D01*
X44427525Y-28949500D01*
X44365790Y-28966041D01*
X44287510Y-28987017D01*
X44161989Y-29059487D01*
X44059487Y-29161989D01*
X43987017Y-29287510D01*
X43961212Y-29383814D01*
X43949500Y-29427525D01*
X43949500Y-29572475D01*
X43976539Y-29673386D01*
X43987017Y-29712489D01*
X44059487Y-29838010D01*
X44059489Y-29838012D01*
X44059491Y-29838015D01*
X44161985Y-29940509D01*
X44161987Y-29940510D01*
X44161989Y-29940512D01*
X44287511Y-30012982D01*
X44287512Y-30012982D01*
X44287515Y-30012984D01*
X44427525Y-30050500D01*
X44427526Y-30050500D01*
X44572474Y-30050500D01*
X44572475Y-30050500D01*
X44712485Y-30012984D01*
X44712487Y-30012982D01*
X44712489Y-30012982D01*
X44838010Y-29940512D01*
X44838010Y-29940511D01*
X44838015Y-29940509D01*
X44868522Y-29910002D01*
X44899029Y-29879496D01*
X44953546Y-29851719D01*
X44969032Y-29850500D01*
X45546142Y-29850500D01*
X45546144Y-29850500D01*
X45635288Y-29826614D01*
X45645912Y-29820480D01*
X45715212Y-29780470D01*
X45886182Y-29609500D01*
X45956187Y-29539496D01*
X45963303Y-29535870D01*
X45967999Y-29529407D01*
X45990048Y-29522242D01*
X46010703Y-29511719D01*
X46026190Y-29510500D01*
X46180501Y-29510500D01*
X46238692Y-29529407D01*
X46274656Y-29578907D01*
X46279501Y-29609500D01*
X46279501Y-29980484D01*
X46285587Y-30037111D01*
X46285587Y-30037112D01*
X46285588Y-30037114D01*
X46333372Y-30165226D01*
X46415313Y-30274687D01*
X46512546Y-30347474D01*
X46516917Y-30350746D01*
X46552170Y-30400755D01*
X46551296Y-30461934D01*
X46516917Y-30509253D01*
X46477393Y-30538841D01*
X46415313Y-30585313D01*
X46415311Y-30585315D01*
X46333373Y-30694771D01*
X46285587Y-30822887D01*
X46279500Y-30879518D01*
X46279500Y-31250500D01*
X46260593Y-31308691D01*
X46211093Y-31344655D01*
X46180500Y-31349500D01*
X45653856Y-31349500D01*
X45564712Y-31373386D01*
X45484785Y-31419532D01*
X45283813Y-31620504D01*
X45229297Y-31648281D01*
X45213810Y-31649500D01*
X44969032Y-31649500D01*
X44910841Y-31630593D01*
X44899029Y-31620504D01*
X44838015Y-31559491D01*
X44838010Y-31559487D01*
X44712488Y-31487017D01*
X44712489Y-31487017D01*
X44682896Y-31479087D01*
X44572475Y-31449500D01*
X44427525Y-31449500D01*
X44365790Y-31466041D01*
X44287510Y-31487017D01*
X44161989Y-31559487D01*
X44059487Y-31661989D01*
X43987017Y-31787510D01*
X43980554Y-31811632D01*
X43949500Y-31927525D01*
X43949500Y-32072475D01*
X43970139Y-32149500D01*
X43987017Y-32212489D01*
X44059487Y-32338010D01*
X44059489Y-32338012D01*
X44059491Y-32338015D01*
X44161985Y-32440509D01*
X44161987Y-32440510D01*
X44161989Y-32440512D01*
X44287511Y-32512982D01*
X44287512Y-32512982D01*
X44287515Y-32512984D01*
X44427525Y-32550500D01*
X44427526Y-32550500D01*
X44572474Y-32550500D01*
X44572475Y-32550500D01*
X44712485Y-32512984D01*
X44712487Y-32512982D01*
X44712489Y-32512982D01*
X44838010Y-32440512D01*
X44838010Y-32440511D01*
X44838015Y-32440509D01*
X44868522Y-32410002D01*
X44899029Y-32379496D01*
X44953546Y-32351719D01*
X44969032Y-32350500D01*
X45446142Y-32350500D01*
X45446144Y-32350500D01*
X45535288Y-32326614D01*
X45545912Y-32320480D01*
X45615212Y-32280470D01*
X45746182Y-32149500D01*
X45816187Y-32079496D01*
X45870703Y-32051719D01*
X45886190Y-32050500D01*
X46180501Y-32050500D01*
X46238692Y-32069407D01*
X46274656Y-32118907D01*
X46279501Y-32149500D01*
X46279501Y-32520484D01*
X46285587Y-32577111D01*
X46285587Y-32577112D01*
X46285588Y-32577114D01*
X46333372Y-32705226D01*
X46415313Y-32814687D01*
X46516917Y-32890746D01*
X46552170Y-32940755D01*
X46551296Y-33001934D01*
X46516917Y-33049253D01*
X46459375Y-33092329D01*
X46415313Y-33125313D01*
X46415311Y-33125315D01*
X46333373Y-33234771D01*
X46285587Y-33362887D01*
X46279500Y-33419518D01*
X46279500Y-33790500D01*
X46260593Y-33848691D01*
X46211093Y-33884655D01*
X46180500Y-33889500D01*
X44713856Y-33889500D01*
X44624712Y-33913386D01*
X44624711Y-33913386D01*
X44624709Y-33913387D01*
X44585135Y-33936236D01*
X44535634Y-33949500D01*
X44427525Y-33949500D01*
X44396408Y-33957838D01*
X44287510Y-33987017D01*
X44161989Y-34059487D01*
X44059487Y-34161989D01*
X43987017Y-34287510D01*
X43952526Y-34416233D01*
X43949500Y-34427525D01*
X43949500Y-34572475D01*
X43959396Y-34609407D01*
X43987017Y-34712489D01*
X44059487Y-34838010D01*
X44059489Y-34838012D01*
X44059491Y-34838015D01*
X44161985Y-34940509D01*
X44161987Y-34940510D01*
X44161989Y-34940512D01*
X44287511Y-35012982D01*
X44287512Y-35012982D01*
X44287515Y-35012984D01*
X44427525Y-35050500D01*
X44427526Y-35050500D01*
X44572474Y-35050500D01*
X44572475Y-35050500D01*
X44712485Y-35012984D01*
X44712487Y-35012982D01*
X44712489Y-35012982D01*
X44838010Y-34940512D01*
X44838010Y-34940511D01*
X44838015Y-34940509D01*
X44940509Y-34838015D01*
X44940512Y-34838010D01*
X45012982Y-34712489D01*
X45012982Y-34712487D01*
X45012984Y-34712485D01*
X45026008Y-34663875D01*
X45059332Y-34612563D01*
X45116454Y-34590636D01*
X45121635Y-34590500D01*
X46180501Y-34590500D01*
X46238692Y-34609407D01*
X46274656Y-34658907D01*
X46279501Y-34689500D01*
X46279501Y-35060484D01*
X46285587Y-35117111D01*
X46285587Y-35117112D01*
X46285588Y-35117114D01*
X46333372Y-35245226D01*
X46415313Y-35354687D01*
X46524774Y-35436628D01*
X46652886Y-35484412D01*
X46709515Y-35490500D01*
X47850484Y-35490499D01*
X47907114Y-35484412D01*
X48035226Y-35436628D01*
X48144687Y-35354687D01*
X48226628Y-35245226D01*
X48274412Y-35117114D01*
X48280500Y-35060485D01*
X48280499Y-33419516D01*
X48274412Y-33362886D01*
X48226628Y-33234774D01*
X48144687Y-33125313D01*
X48043082Y-33049253D01*
X48007829Y-32999245D01*
X48008703Y-32938066D01*
X48043083Y-32890746D01*
X48144687Y-32814687D01*
X48226628Y-32705226D01*
X48274412Y-32577114D01*
X48280500Y-32520485D01*
X48280499Y-30879516D01*
X48274412Y-30822886D01*
X48226628Y-30694774D01*
X48144687Y-30585313D01*
X48043082Y-30509253D01*
X48007829Y-30459245D01*
X48008703Y-30398066D01*
X48043083Y-30350746D01*
X48047454Y-30347474D01*
X48144687Y-30274687D01*
X48226628Y-30165226D01*
X48274412Y-30037114D01*
X48280500Y-29980485D01*
X48280499Y-28339516D01*
X48274412Y-28282886D01*
X48226628Y-28154774D01*
X48144687Y-28045313D01*
X48043082Y-27969253D01*
X48007829Y-27919245D01*
X48008703Y-27858066D01*
X48043083Y-27810746D01*
X48053460Y-27802978D01*
X48144687Y-27734687D01*
X48226628Y-27625226D01*
X48274412Y-27497114D01*
X48280500Y-27440485D01*
X48280499Y-25799516D01*
X48274412Y-25742886D01*
X48226628Y-25614774D01*
X48144687Y-25505313D01*
X48043082Y-25429253D01*
X48007829Y-25379245D01*
X48008703Y-25318066D01*
X48043083Y-25270746D01*
X48052959Y-25263353D01*
X48144687Y-25194687D01*
X48226628Y-25085226D01*
X48274412Y-24957114D01*
X48280500Y-24900485D01*
X48280500Y-24529500D01*
X48299407Y-24471309D01*
X48348907Y-24435345D01*
X48379500Y-24430500D01*
X49060222Y-24430500D01*
X49118413Y-24449407D01*
X49139475Y-24470171D01*
X49159400Y-24496788D01*
X49167454Y-24507546D01*
X49167457Y-24507548D01*
X49167458Y-24507549D01*
X49282670Y-24593797D01*
X49417511Y-24644089D01*
X49417512Y-24644089D01*
X49417517Y-24644091D01*
X49477127Y-24650500D01*
X50522872Y-24650499D01*
X50582483Y-24644091D01*
X50649907Y-24618943D01*
X50717329Y-24593797D01*
X50717329Y-24593796D01*
X50717331Y-24593796D01*
X50832546Y-24507546D01*
X50840845Y-24496459D01*
X50890851Y-24461207D01*
X50952030Y-24462079D01*
X50990102Y-24485784D01*
X53620504Y-27116186D01*
X53648281Y-27170703D01*
X53649500Y-27186190D01*
X53649500Y-36829848D01*
X53673386Y-36918992D01*
X53719530Y-36998916D01*
X54347779Y-37627164D01*
X54920504Y-38199889D01*
X54948281Y-38254406D01*
X54949500Y-38269893D01*
X54949500Y-38356178D01*
X54987017Y-38496193D01*
X55059487Y-38621714D01*
X55059489Y-38621716D01*
X55059491Y-38621719D01*
X55161985Y-38724213D01*
X55161987Y-38724214D01*
X55161989Y-38724216D01*
X55287511Y-38796686D01*
X55287512Y-38796686D01*
X55287515Y-38796688D01*
X55427525Y-38834204D01*
X55427526Y-38834204D01*
X55572474Y-38834204D01*
X55572475Y-38834204D01*
X55712485Y-38796688D01*
X55712487Y-38796686D01*
X55712489Y-38796686D01*
X55838010Y-38724216D01*
X55838010Y-38724215D01*
X55838015Y-38724213D01*
X55940509Y-38621719D01*
X56012984Y-38496189D01*
X56050500Y-38356179D01*
X56050500Y-38211229D01*
X56012984Y-38071219D01*
X56012982Y-38071216D01*
X56012982Y-38071214D01*
X55940512Y-37945693D01*
X55940510Y-37945691D01*
X55940509Y-37945689D01*
X55838015Y-37843195D01*
X55838012Y-37843193D01*
X55838010Y-37843191D01*
X55712488Y-37770721D01*
X55712489Y-37770721D01*
X55682896Y-37762791D01*
X55572475Y-37733204D01*
X55572474Y-37733204D01*
X55486189Y-37733204D01*
X55427998Y-37714297D01*
X55416185Y-37704208D01*
X54379496Y-36667518D01*
X54351719Y-36613001D01*
X54350500Y-36597514D01*
X54350500Y-26953857D01*
X54350500Y-26953856D01*
X54326614Y-26864712D01*
X54323951Y-26860099D01*
X54315471Y-26845410D01*
X54315471Y-26845409D01*
X54280473Y-26784792D01*
X54280472Y-26784791D01*
X54280471Y-26784790D01*
X54280470Y-26784788D01*
X51670172Y-24174490D01*
X51642395Y-24119973D01*
X51651966Y-24059541D01*
X51695231Y-24016276D01*
X51724690Y-24006705D01*
X51732220Y-24005512D01*
X51792175Y-23996017D01*
X51902391Y-23939859D01*
X51989859Y-23852391D01*
X52046017Y-23742175D01*
X52060500Y-23650735D01*
X52060499Y-23309266D01*
X52060045Y-23306401D01*
X52054174Y-23269329D01*
X52049977Y-23242830D01*
X52059548Y-23182400D01*
X52077755Y-23157341D01*
X52179719Y-23055377D01*
X52179720Y-23055375D01*
X52262030Y-22916198D01*
X52262030Y-22916197D01*
X52304504Y-22770000D01*
X51599000Y-22770000D01*
X51540809Y-22751093D01*
X51504845Y-22701593D01*
X51500000Y-22671000D01*
X51500000Y-22520001D01*
X51499999Y-22520000D01*
X51349000Y-22520000D01*
X51290809Y-22501093D01*
X51254845Y-22451593D01*
X51250000Y-22421000D01*
X51250000Y-22269999D01*
X51750000Y-22269999D01*
X51750001Y-22270000D01*
X52304504Y-22270000D01*
X52304504Y-22269999D01*
X52262030Y-22123802D01*
X52262030Y-22123801D01*
X52179721Y-21984625D01*
X52065374Y-21870278D01*
X51926197Y-21787969D01*
X51770912Y-21742855D01*
X51750000Y-21741209D01*
X51750000Y-22269999D01*
X51250000Y-22269999D01*
X51250000Y-21737316D01*
X51224624Y-21692005D01*
X51223235Y-21682751D01*
X51214507Y-21597311D01*
X51214504Y-21597300D01*
X51159356Y-21430875D01*
X51067319Y-21281659D01*
X50943340Y-21157680D01*
X50794124Y-21065643D01*
X50627693Y-21010493D01*
X50524987Y-21000000D01*
X50250001Y-21000000D01*
X50250000Y-21000001D01*
X50250000Y-21901000D01*
X50231093Y-21959191D01*
X50181593Y-21995155D01*
X50151000Y-22000000D01*
X50000001Y-22000000D01*
X50000000Y-22000001D01*
X50000000Y-22151000D01*
X49981093Y-22209191D01*
X49931593Y-22245155D01*
X49901000Y-22250000D01*
X48775002Y-22250000D01*
X48775001Y-22250001D01*
X48775001Y-22299986D01*
X48785492Y-22402687D01*
X48785495Y-22402699D01*
X48840643Y-22569124D01*
X48932680Y-22718340D01*
X49056659Y-22842319D01*
X49205875Y-22934356D01*
X49365552Y-22987268D01*
X49414842Y-23023519D01*
X49433410Y-23081819D01*
X49414165Y-23139899D01*
X49369009Y-23174001D01*
X49282669Y-23206203D01*
X49167458Y-23292450D01*
X49167450Y-23292458D01*
X49081202Y-23407670D01*
X49030910Y-23542511D01*
X49030908Y-23542522D01*
X49024500Y-23602129D01*
X49024500Y-23630500D01*
X49005593Y-23688691D01*
X48956093Y-23724655D01*
X48925500Y-23729500D01*
X48379499Y-23729500D01*
X48321308Y-23710593D01*
X48285344Y-23661093D01*
X48280499Y-23630500D01*
X48280499Y-23259521D01*
X48280499Y-23259518D01*
X48280499Y-23259516D01*
X48274412Y-23202886D01*
X48226628Y-23074774D01*
X48205500Y-23046551D01*
X48185764Y-22988638D01*
X48203838Y-22930183D01*
X48232783Y-22902962D01*
X48257726Y-22887576D01*
X48257727Y-22887576D01*
X48377574Y-22767729D01*
X48466545Y-22623487D01*
X48519856Y-22462603D01*
X48530000Y-22363323D01*
X48530000Y-21790001D01*
X48529999Y-21790000D01*
X46030002Y-21790000D01*
X46030001Y-21790001D01*
X46030001Y-22363322D01*
X46040142Y-22462597D01*
X46040145Y-22462609D01*
X46093454Y-22623487D01*
X46182425Y-22767729D01*
X46302267Y-22887571D01*
X46327218Y-22902961D01*
X46366819Y-22949602D01*
X46371442Y-23010613D01*
X46354500Y-23046549D01*
X46333373Y-23074771D01*
X46285587Y-23202887D01*
X46279500Y-23259518D01*
X46279500Y-23630500D01*
X46260593Y-23688691D01*
X46211093Y-23724655D01*
X46180500Y-23729500D01*
X44873856Y-23729500D01*
X44789232Y-23752175D01*
X44784712Y-23753386D01*
X44704788Y-23799530D01*
X42719529Y-25784789D01*
X42711027Y-25799516D01*
X42699587Y-25819331D01*
X42688034Y-25839339D01*
X42673387Y-25864709D01*
X42649500Y-25953857D01*
X42649500Y-28313810D01*
X42630593Y-28372001D01*
X42620504Y-28383814D01*
X41583814Y-29420504D01*
X41529297Y-29448281D01*
X41513810Y-29449500D01*
X41427525Y-29449500D01*
X41365790Y-29466041D01*
X41287510Y-29487017D01*
X41161989Y-29559487D01*
X41059487Y-29661989D01*
X40987017Y-29787510D01*
X40970139Y-29850500D01*
X40949500Y-29927525D01*
X39068156Y-29927525D01*
X39631994Y-29363686D01*
X39686511Y-29335910D01*
X39701998Y-29334691D01*
X39827474Y-29334691D01*
X39827475Y-29334691D01*
X39967485Y-29297175D01*
X39967487Y-29297173D01*
X39967489Y-29297173D01*
X40093010Y-29224703D01*
X40093010Y-29224702D01*
X40093015Y-29224700D01*
X40195509Y-29122206D01*
X40267984Y-28996676D01*
X40305500Y-28856666D01*
X40305500Y-28711716D01*
X40267984Y-28571706D01*
X40267982Y-28571703D01*
X40267982Y-28571701D01*
X40195512Y-28446180D01*
X40195510Y-28446178D01*
X40195509Y-28446176D01*
X40093015Y-28343682D01*
X40093012Y-28343680D01*
X40093010Y-28343678D01*
X39967488Y-28271208D01*
X39967489Y-28271208D01*
X39937896Y-28263278D01*
X39827475Y-28233691D01*
X39682525Y-28233691D01*
X39620790Y-28250232D01*
X39542510Y-28271208D01*
X39416989Y-28343678D01*
X39314487Y-28446180D01*
X39242017Y-28571701D01*
X39204500Y-28711716D01*
X39204500Y-28758810D01*
X39185593Y-28817001D01*
X39175504Y-28828814D01*
X37383814Y-30620504D01*
X37329297Y-30648281D01*
X37313810Y-30649500D01*
X33315918Y-30649500D01*
X33257727Y-30630593D01*
X33221763Y-30581093D01*
X33221763Y-30519907D01*
X33230181Y-30501000D01*
X33237983Y-30487486D01*
X33237984Y-30487485D01*
X33275500Y-30347475D01*
X33275500Y-30202525D01*
X33237984Y-30062515D01*
X33237982Y-30062512D01*
X33237982Y-30062510D01*
X33165512Y-29936989D01*
X33165510Y-29936987D01*
X33165509Y-29936985D01*
X33063015Y-29834491D01*
X33063012Y-29834489D01*
X33063010Y-29834487D01*
X32937488Y-29762017D01*
X32937489Y-29762017D01*
X32907896Y-29754087D01*
X32797475Y-29724500D01*
X32797474Y-29724500D01*
X32761190Y-29724500D01*
X32702999Y-29705593D01*
X32691186Y-29695504D01*
X32423207Y-29427525D01*
X33294500Y-29427525D01*
X33294500Y-29572475D01*
X33321539Y-29673386D01*
X33332017Y-29712489D01*
X33404487Y-29838010D01*
X33404489Y-29838012D01*
X33404491Y-29838015D01*
X33506985Y-29940509D01*
X33506987Y-29940510D01*
X33506989Y-29940512D01*
X33632511Y-30012982D01*
X33632512Y-30012982D01*
X33632515Y-30012984D01*
X33772525Y-30050500D01*
X33772526Y-30050500D01*
X33917474Y-30050500D01*
X33917475Y-30050500D01*
X34057485Y-30012984D01*
X34057487Y-30012982D01*
X34057489Y-30012982D01*
X34183010Y-29940512D01*
X34183010Y-29940511D01*
X34183015Y-29940509D01*
X34213522Y-29910002D01*
X34244029Y-29879496D01*
X34298546Y-29851719D01*
X34314032Y-29850500D01*
X35046142Y-29850500D01*
X35046144Y-29850500D01*
X35135288Y-29826614D01*
X35145912Y-29820480D01*
X35215212Y-29780470D01*
X37280470Y-27715212D01*
X37326614Y-27635288D01*
X37329310Y-27625226D01*
X37350500Y-27546144D01*
X37350500Y-26438776D01*
X37369407Y-26380585D01*
X37411615Y-26347312D01*
X37508652Y-26307118D01*
X37643038Y-26217324D01*
X37757324Y-26103038D01*
X37847118Y-25968652D01*
X37908969Y-25819331D01*
X37940500Y-25660812D01*
X37940500Y-25499188D01*
X37940499Y-25499185D01*
X38839500Y-25499185D01*
X38839500Y-25660814D01*
X38871030Y-25819329D01*
X38932881Y-25968651D01*
X38932882Y-25968652D01*
X39022676Y-26103038D01*
X39136962Y-26217324D01*
X39271348Y-26307118D01*
X39420669Y-26368969D01*
X39579188Y-26400500D01*
X39579189Y-26400500D01*
X39740811Y-26400500D01*
X39740812Y-26400500D01*
X39899331Y-26368969D01*
X40048652Y-26307118D01*
X40183038Y-26217324D01*
X40297324Y-26103038D01*
X40387118Y-25968652D01*
X40448969Y-25819331D01*
X40480500Y-25660812D01*
X40480500Y-25499188D01*
X40448969Y-25340669D01*
X40387118Y-25191348D01*
X40297324Y-25056962D01*
X40183038Y-24942676D01*
X40061149Y-24861232D01*
X40048651Y-24852881D01*
X39899329Y-24791030D01*
X39740814Y-24759500D01*
X39740812Y-24759500D01*
X39579188Y-24759500D01*
X39579185Y-24759500D01*
X39420670Y-24791030D01*
X39271348Y-24852881D01*
X39136962Y-24942676D01*
X39136958Y-24942679D01*
X39022679Y-25056958D01*
X39022676Y-25056962D01*
X38932881Y-25191348D01*
X38871030Y-25340670D01*
X38839500Y-25499185D01*
X37940499Y-25499185D01*
X37908969Y-25340669D01*
X37847118Y-25191348D01*
X37757324Y-25056962D01*
X37643038Y-24942676D01*
X37521149Y-24861232D01*
X37508651Y-24852881D01*
X37359329Y-24791030D01*
X37200814Y-24759500D01*
X37200812Y-24759500D01*
X37039188Y-24759500D01*
X37039185Y-24759500D01*
X36880670Y-24791030D01*
X36731348Y-24852881D01*
X36596962Y-24942676D01*
X36596958Y-24942679D01*
X36482679Y-25056958D01*
X36482676Y-25056962D01*
X36392881Y-25191348D01*
X36331030Y-25340670D01*
X36299500Y-25499185D01*
X36299500Y-25660814D01*
X36331030Y-25819329D01*
X36392881Y-25968651D01*
X36392882Y-25968652D01*
X36482676Y-26103038D01*
X36482679Y-26103041D01*
X36482683Y-26103046D01*
X36541623Y-26161985D01*
X36596962Y-26217324D01*
X36605498Y-26223027D01*
X36643380Y-26271076D01*
X36649500Y-26305345D01*
X36649500Y-27313810D01*
X36630593Y-27372001D01*
X36620504Y-27383814D01*
X34883814Y-29120504D01*
X34829297Y-29148281D01*
X34813810Y-29149500D01*
X34314032Y-29149500D01*
X34255841Y-29130593D01*
X34244029Y-29120504D01*
X34183015Y-29059491D01*
X34183010Y-29059487D01*
X34057488Y-28987017D01*
X34057489Y-28987017D01*
X34027896Y-28979087D01*
X33917475Y-28949500D01*
X33772525Y-28949500D01*
X33710790Y-28966041D01*
X33632510Y-28987017D01*
X33506989Y-29059487D01*
X33404487Y-29161989D01*
X33332017Y-29287510D01*
X33306212Y-29383814D01*
X33294500Y-29427525D01*
X32423207Y-29427525D01*
X32379496Y-29383814D01*
X32351719Y-29329297D01*
X32350500Y-29313810D01*
X32350500Y-27186190D01*
X32369407Y-27127999D01*
X32379496Y-27116187D01*
X32601280Y-26894402D01*
X32655797Y-26866624D01*
X32716229Y-26876195D01*
X32747355Y-26903855D01*
X32747505Y-26903706D01*
X32750044Y-26906245D01*
X32753599Y-26909404D01*
X32754399Y-26910601D01*
X32837260Y-26965966D01*
X32884411Y-26975345D01*
X32910315Y-26980498D01*
X32910320Y-26980498D01*
X32910326Y-26980500D01*
X32910327Y-26980500D01*
X34989673Y-26980500D01*
X34989674Y-26980500D01*
X35062740Y-26965966D01*
X35145601Y-26910601D01*
X35200966Y-26827740D01*
X35215500Y-26754674D01*
X35215500Y-25685326D01*
X35214686Y-25681236D01*
X35210624Y-25660812D01*
X35200966Y-25612260D01*
X35145601Y-25529399D01*
X35145597Y-25529395D01*
X35072942Y-25480850D01*
X35035061Y-25432801D01*
X35032659Y-25371663D01*
X35066651Y-25320788D01*
X35093346Y-25305776D01*
X35207088Y-25263353D01*
X35207090Y-25263352D01*
X35322184Y-25177192D01*
X35322192Y-25177184D01*
X35408352Y-25062090D01*
X35408353Y-25062088D01*
X35458596Y-24927381D01*
X35458598Y-24927370D01*
X35465000Y-24867824D01*
X35465000Y-24560001D01*
X35464999Y-24560000D01*
X32435001Y-24560000D01*
X32435000Y-24560001D01*
X32435000Y-24867824D01*
X32434999Y-24867824D01*
X32441401Y-24927370D01*
X32441403Y-24927381D01*
X32491646Y-25062088D01*
X32491647Y-25062090D01*
X32577807Y-25177184D01*
X32577815Y-25177192D01*
X32692909Y-25263352D01*
X32692911Y-25263353D01*
X32806653Y-25305776D01*
X32854568Y-25343826D01*
X32870966Y-25402773D01*
X32849585Y-25460101D01*
X32827058Y-25480850D01*
X32754400Y-25529397D01*
X32754397Y-25529400D01*
X32699035Y-25612257D01*
X32699033Y-25612263D01*
X32684501Y-25685315D01*
X32684500Y-25685327D01*
X32684500Y-26050500D01*
X32665593Y-26108691D01*
X32616093Y-26144655D01*
X32585500Y-26149500D01*
X32546144Y-26149500D01*
X32453856Y-26149500D01*
X32375483Y-26170500D01*
X32364712Y-26173386D01*
X32284788Y-26219530D01*
X31719526Y-26784792D01*
X31684528Y-26845409D01*
X31684529Y-26845410D01*
X31673387Y-26864708D01*
X31673386Y-26864712D01*
X31653077Y-26940509D01*
X31649500Y-26953857D01*
X31649500Y-29546143D01*
X31663796Y-29599499D01*
X31666476Y-29609500D01*
X31673386Y-29635288D01*
X31719530Y-29715212D01*
X32145505Y-30141187D01*
X32173281Y-30195702D01*
X32174500Y-30211189D01*
X32174500Y-30347475D01*
X32180377Y-30369407D01*
X32200153Y-30443214D01*
X32196950Y-30504316D01*
X32158445Y-30551866D01*
X32099344Y-30567701D01*
X32042223Y-30545774D01*
X32034532Y-30538850D01*
X31215212Y-29719530D01*
X31135288Y-29673386D01*
X31046144Y-29649500D01*
X31046142Y-29649500D01*
X30599500Y-29649500D01*
X30541309Y-29630593D01*
X30505345Y-29581093D01*
X30500500Y-29550500D01*
X30500499Y-28339521D01*
X30500499Y-28339518D01*
X30500499Y-28339516D01*
X30494412Y-28282886D01*
X30446628Y-28154774D01*
X30364687Y-28045313D01*
X30263082Y-27969253D01*
X30227829Y-27919245D01*
X30228703Y-27858066D01*
X30263083Y-27810746D01*
X30273460Y-27802978D01*
X30364687Y-27734687D01*
X30446628Y-27625226D01*
X30494412Y-27497114D01*
X30500500Y-27440485D01*
X30500499Y-25799516D01*
X30494412Y-25742886D01*
X30446628Y-25614774D01*
X30364687Y-25505313D01*
X30263082Y-25429253D01*
X30227829Y-25379245D01*
X30228703Y-25318066D01*
X30263083Y-25270746D01*
X30272959Y-25263353D01*
X30364687Y-25194687D01*
X30446628Y-25085226D01*
X30494412Y-24957114D01*
X30500500Y-24900485D01*
X30500499Y-23752175D01*
X32435000Y-23752175D01*
X32435000Y-24059999D01*
X32435001Y-24060000D01*
X33699999Y-24060000D01*
X33700000Y-24059999D01*
X33700000Y-23300001D01*
X34200000Y-23300001D01*
X34200000Y-24059999D01*
X34200001Y-24060000D01*
X35464999Y-24060000D01*
X35465000Y-24059999D01*
X35465000Y-23752175D01*
X35458598Y-23692629D01*
X35458596Y-23692618D01*
X35408353Y-23557911D01*
X35408352Y-23557909D01*
X35322192Y-23442815D01*
X35322184Y-23442807D01*
X35207090Y-23356647D01*
X35207088Y-23356646D01*
X35072381Y-23306403D01*
X35072370Y-23306401D01*
X35012824Y-23300000D01*
X34200001Y-23300000D01*
X34200000Y-23300001D01*
X33700000Y-23300001D01*
X33699999Y-23300000D01*
X32887176Y-23300000D01*
X32827629Y-23306401D01*
X32827618Y-23306403D01*
X32692911Y-23356646D01*
X32692909Y-23356647D01*
X32577815Y-23442807D01*
X32577807Y-23442815D01*
X32491647Y-23557909D01*
X32491646Y-23557911D01*
X32441403Y-23692618D01*
X32441401Y-23692629D01*
X32435000Y-23752175D01*
X30500499Y-23752175D01*
X30500499Y-23259516D01*
X30494412Y-23202886D01*
X30446628Y-23074774D01*
X30408259Y-23023519D01*
X30393388Y-23003653D01*
X30393387Y-23003652D01*
X30364690Y-22965317D01*
X30364688Y-22965315D01*
X30364687Y-22965313D01*
X30343142Y-22949185D01*
X36299500Y-22949185D01*
X36299500Y-23110814D01*
X36331030Y-23269329D01*
X36392881Y-23418651D01*
X36392882Y-23418652D01*
X36482676Y-23553038D01*
X36596962Y-23667324D01*
X36731348Y-23757118D01*
X36880669Y-23818969D01*
X37039188Y-23850500D01*
X37039189Y-23850500D01*
X37200811Y-23850500D01*
X37200812Y-23850500D01*
X37359331Y-23818969D01*
X37508652Y-23757118D01*
X37643038Y-23667324D01*
X37757324Y-23553038D01*
X37847118Y-23418652D01*
X37908969Y-23269331D01*
X37940500Y-23110812D01*
X37940500Y-22949188D01*
X37940499Y-22949185D01*
X38839500Y-22949185D01*
X38839500Y-23110814D01*
X38871030Y-23269329D01*
X38932881Y-23418651D01*
X38932882Y-23418652D01*
X39022676Y-23553038D01*
X39136962Y-23667324D01*
X39271348Y-23757118D01*
X39420669Y-23818969D01*
X39579188Y-23850500D01*
X39579189Y-23850500D01*
X39740811Y-23850500D01*
X39740812Y-23850500D01*
X39899331Y-23818969D01*
X40048652Y-23757118D01*
X40183038Y-23667324D01*
X40297324Y-23553038D01*
X40387118Y-23418652D01*
X40448969Y-23269331D01*
X40480500Y-23110812D01*
X40480500Y-22949188D01*
X40448969Y-22790669D01*
X40387118Y-22641348D01*
X40297324Y-22506962D01*
X40183038Y-22392676D01*
X40048652Y-22302882D01*
X40048653Y-22302882D01*
X40048651Y-22302881D01*
X39899329Y-22241030D01*
X39740814Y-22209500D01*
X39740812Y-22209500D01*
X39579188Y-22209500D01*
X39579185Y-22209500D01*
X39420670Y-22241030D01*
X39271348Y-22302881D01*
X39136962Y-22392676D01*
X39136958Y-22392679D01*
X39022679Y-22506958D01*
X39022676Y-22506962D01*
X38932881Y-22641348D01*
X38871030Y-22790670D01*
X38839500Y-22949185D01*
X37940499Y-22949185D01*
X37908969Y-22790669D01*
X37847118Y-22641348D01*
X37757324Y-22506962D01*
X37643038Y-22392676D01*
X37508652Y-22302882D01*
X37508653Y-22302882D01*
X37508651Y-22302881D01*
X37359329Y-22241030D01*
X37200814Y-22209500D01*
X37200812Y-22209500D01*
X37039188Y-22209500D01*
X37039185Y-22209500D01*
X36880670Y-22241030D01*
X36731348Y-22302881D01*
X36596962Y-22392676D01*
X36596958Y-22392679D01*
X36482679Y-22506958D01*
X36482676Y-22506962D01*
X36392881Y-22641348D01*
X36331030Y-22790670D01*
X36299500Y-22949185D01*
X30343142Y-22949185D01*
X30263082Y-22889253D01*
X30227829Y-22839245D01*
X30228703Y-22778066D01*
X30263083Y-22730746D01*
X30364687Y-22654687D01*
X30446628Y-22545226D01*
X30494412Y-22417114D01*
X30500500Y-22360485D01*
X30500499Y-21700012D01*
X48775000Y-21700012D01*
X48775000Y-21749999D01*
X48775001Y-21750000D01*
X49749999Y-21750000D01*
X49750000Y-21749999D01*
X49750000Y-21000001D01*
X49749999Y-21000000D01*
X49475013Y-21000000D01*
X49372312Y-21010492D01*
X49372300Y-21010495D01*
X49205875Y-21065643D01*
X49056659Y-21157680D01*
X48932680Y-21281659D01*
X48840643Y-21430875D01*
X48785493Y-21597306D01*
X48775000Y-21700012D01*
X30500499Y-21700012D01*
X30500499Y-21413040D01*
X39100512Y-21413040D01*
X39153167Y-21448222D01*
X39347892Y-21528879D01*
X39554611Y-21569999D01*
X39554615Y-21570000D01*
X39765385Y-21570000D01*
X39765388Y-21569999D01*
X39972106Y-21528879D01*
X39972108Y-21528879D01*
X40166830Y-21448223D01*
X40166842Y-21448217D01*
X40219486Y-21413040D01*
X39659999Y-20853553D01*
X39100512Y-21413040D01*
X30500499Y-21413040D01*
X30500499Y-20719516D01*
X30494412Y-20662886D01*
X30446628Y-20534774D01*
X30364687Y-20425313D01*
X30356501Y-20419185D01*
X36299500Y-20419185D01*
X36299500Y-20580814D01*
X36331030Y-20739329D01*
X36392881Y-20888651D01*
X36414390Y-20920841D01*
X36482676Y-21023038D01*
X36596962Y-21137324D01*
X36731348Y-21227118D01*
X36880669Y-21288969D01*
X37039188Y-21320500D01*
X37039189Y-21320500D01*
X37200811Y-21320500D01*
X37200812Y-21320500D01*
X37359331Y-21288969D01*
X37508652Y-21227118D01*
X37643038Y-21137324D01*
X37757324Y-21023038D01*
X37847118Y-20888652D01*
X37908969Y-20739331D01*
X37940500Y-20580812D01*
X37940500Y-20419188D01*
X37940499Y-20419180D01*
X37938487Y-20409066D01*
X37938486Y-20409064D01*
X37936973Y-20401460D01*
X37935611Y-20394611D01*
X38590000Y-20394611D01*
X38590000Y-20605388D01*
X38631120Y-20812106D01*
X38631120Y-20812108D01*
X38711777Y-21006832D01*
X38746958Y-21059485D01*
X39306445Y-20499999D01*
X40013553Y-20499999D01*
X40573040Y-21059486D01*
X40608217Y-21006842D01*
X40608223Y-21006830D01*
X40688879Y-20812108D01*
X40688879Y-20812106D01*
X40729999Y-20605388D01*
X40730000Y-20605384D01*
X40730000Y-20394615D01*
X40729999Y-20394611D01*
X40688879Y-20187893D01*
X40688879Y-20187891D01*
X40608222Y-19993167D01*
X40573040Y-19940512D01*
X40013553Y-20499999D01*
X39306445Y-20499999D01*
X38746959Y-19940513D01*
X38711776Y-19993170D01*
X38631120Y-20187891D01*
X38631120Y-20187893D01*
X38590000Y-20394611D01*
X37935611Y-20394611D01*
X37908969Y-20260669D01*
X37847118Y-20111348D01*
X37757324Y-19976962D01*
X37643038Y-19862676D01*
X37508652Y-19772882D01*
X37508651Y-19772881D01*
X37508649Y-19772880D01*
X37369678Y-19715317D01*
X37359331Y-19711031D01*
X37359329Y-19711030D01*
X37200814Y-19679500D01*
X37200812Y-19679500D01*
X37039188Y-19679500D01*
X37039185Y-19679500D01*
X36880670Y-19711030D01*
X36731348Y-19772881D01*
X36596962Y-19862676D01*
X36596958Y-19862679D01*
X36482679Y-19976958D01*
X36482676Y-19976962D01*
X36392881Y-20111348D01*
X36331030Y-20260670D01*
X36299500Y-20419185D01*
X30356501Y-20419185D01*
X30263082Y-20349253D01*
X30227829Y-20299245D01*
X30228703Y-20238066D01*
X30263083Y-20190746D01*
X30364687Y-20114687D01*
X30446628Y-20005226D01*
X30494412Y-19877114D01*
X30500500Y-19820485D01*
X30500500Y-19586959D01*
X39100513Y-19586959D01*
X39659999Y-20146445D01*
X40219486Y-19586958D01*
X40166832Y-19551777D01*
X39972107Y-19471120D01*
X39765388Y-19430000D01*
X39554611Y-19430000D01*
X39347893Y-19471120D01*
X39347891Y-19471120D01*
X39153170Y-19551776D01*
X39100513Y-19586959D01*
X30500500Y-19586959D01*
X30500499Y-18179516D01*
X30494412Y-18122886D01*
X30446628Y-17994774D01*
X30364687Y-17885313D01*
X30343142Y-17869185D01*
X36299500Y-17869185D01*
X36299500Y-18030814D01*
X36331030Y-18189329D01*
X36392881Y-18338651D01*
X36392882Y-18338652D01*
X36482676Y-18473038D01*
X36596962Y-18587324D01*
X36731348Y-18677118D01*
X36880669Y-18738969D01*
X37039188Y-18770500D01*
X37039189Y-18770500D01*
X37200811Y-18770500D01*
X37200812Y-18770500D01*
X37359331Y-18738969D01*
X37508652Y-18677118D01*
X37643038Y-18587324D01*
X37757324Y-18473038D01*
X37847118Y-18338652D01*
X37908969Y-18189331D01*
X37940500Y-18030812D01*
X37940500Y-17869188D01*
X37940499Y-17869185D01*
X38839500Y-17869185D01*
X38839500Y-18030814D01*
X38871030Y-18189329D01*
X38932881Y-18338651D01*
X38932882Y-18338652D01*
X39022676Y-18473038D01*
X39136962Y-18587324D01*
X39271348Y-18677118D01*
X39420669Y-18738969D01*
X39579188Y-18770500D01*
X39579189Y-18770500D01*
X39740811Y-18770500D01*
X39740812Y-18770500D01*
X39899331Y-18738969D01*
X40048652Y-18677118D01*
X40183038Y-18587324D01*
X40297324Y-18473038D01*
X40387118Y-18338652D01*
X40448969Y-18189331D01*
X40480500Y-18030812D01*
X40480500Y-17869188D01*
X40448969Y-17710669D01*
X40387118Y-17561348D01*
X40297324Y-17426962D01*
X40183038Y-17312676D01*
X40048652Y-17222882D01*
X40048653Y-17222882D01*
X40048651Y-17222881D01*
X39899329Y-17161030D01*
X39740814Y-17129500D01*
X39740812Y-17129500D01*
X39579188Y-17129500D01*
X39579185Y-17129500D01*
X39420670Y-17161030D01*
X39271348Y-17222881D01*
X39136962Y-17312676D01*
X39136958Y-17312679D01*
X39022679Y-17426958D01*
X39022676Y-17426962D01*
X38932881Y-17561348D01*
X38871030Y-17710670D01*
X38839500Y-17869185D01*
X37940499Y-17869185D01*
X37908969Y-17710669D01*
X37847118Y-17561348D01*
X37757324Y-17426962D01*
X37643038Y-17312676D01*
X37508652Y-17222882D01*
X37508653Y-17222882D01*
X37508651Y-17222881D01*
X37359329Y-17161030D01*
X37200814Y-17129500D01*
X37200812Y-17129500D01*
X37039188Y-17129500D01*
X37039185Y-17129500D01*
X36880670Y-17161030D01*
X36731348Y-17222881D01*
X36596962Y-17312676D01*
X36596958Y-17312679D01*
X36482679Y-17426958D01*
X36482676Y-17426962D01*
X36392881Y-17561348D01*
X36331030Y-17710670D01*
X36299500Y-17869185D01*
X30343142Y-17869185D01*
X30263279Y-17809400D01*
X30255228Y-17803373D01*
X30255226Y-17803372D01*
X30127114Y-17755588D01*
X30127113Y-17755587D01*
X30088895Y-17751479D01*
X30070485Y-17749500D01*
X30070481Y-17749500D01*
X28929521Y-17749500D01*
X28929515Y-17749501D01*
X28872888Y-17755587D01*
X28872886Y-17755588D01*
X28744774Y-17803372D01*
X28744773Y-17803372D01*
X28744772Y-17803373D01*
X28635315Y-17885311D01*
X28635311Y-17885315D01*
X28553373Y-17994771D01*
X28505587Y-18122887D01*
X28499500Y-18179518D01*
X28499500Y-18482650D01*
X28480593Y-18540841D01*
X28431093Y-18576805D01*
X28369907Y-18576805D01*
X28340235Y-18561194D01*
X28338013Y-18559489D01*
X28212488Y-18487017D01*
X28212489Y-18487017D01*
X28160315Y-18473037D01*
X28072475Y-18449500D01*
X27927525Y-18449500D01*
X27839685Y-18473037D01*
X27787511Y-18487017D01*
X27748999Y-18509252D01*
X27689150Y-18521973D01*
X27633255Y-18497085D01*
X27602663Y-18444097D01*
X27600500Y-18423515D01*
X27600500Y-17965327D01*
X27600498Y-17965315D01*
X27597015Y-17947808D01*
X27585966Y-17892260D01*
X27530601Y-17809399D01*
X27530599Y-17809397D01*
X27447742Y-17754035D01*
X27447740Y-17754034D01*
X27447737Y-17754033D01*
X27447736Y-17754033D01*
X27374684Y-17739501D01*
X27374674Y-17739500D01*
X25625326Y-17739500D01*
X25625325Y-17739500D01*
X25625315Y-17739501D01*
X25552263Y-17754033D01*
X25552257Y-17754035D01*
X25469400Y-17809397D01*
X25469397Y-17809400D01*
X25414035Y-17892257D01*
X25414033Y-17892263D01*
X25399501Y-17965315D01*
X25399500Y-17965327D01*
X25399500Y-19714672D01*
X25399501Y-19714684D01*
X25414033Y-19787736D01*
X25414035Y-19787742D01*
X25469397Y-19870599D01*
X25469400Y-19870602D01*
X25552257Y-19925964D01*
X25552260Y-19925966D01*
X25607808Y-19937015D01*
X25625315Y-19940498D01*
X25625320Y-19940498D01*
X25625326Y-19940500D01*
X25625327Y-19940500D01*
X27374673Y-19940500D01*
X27374674Y-19940500D01*
X27447740Y-19925966D01*
X27530601Y-19870601D01*
X27585966Y-19787740D01*
X27600500Y-19714674D01*
X27600500Y-19576484D01*
X27619407Y-19518293D01*
X27668907Y-19482329D01*
X27730093Y-19482329D01*
X27749000Y-19490748D01*
X27787511Y-19512982D01*
X27787512Y-19512982D01*
X27787515Y-19512984D01*
X27927525Y-19550500D01*
X27927526Y-19550500D01*
X28072474Y-19550500D01*
X28072475Y-19550500D01*
X28212485Y-19512984D01*
X28212487Y-19512982D01*
X28212489Y-19512982D01*
X28284995Y-19471120D01*
X28338015Y-19440509D01*
X28338024Y-19440499D01*
X28340228Y-19438810D01*
X28342119Y-19438140D01*
X28343635Y-19437265D01*
X28343797Y-19437545D01*
X28397902Y-19418382D01*
X28456569Y-19435755D01*
X28493820Y-19484294D01*
X28499501Y-19517348D01*
X28499501Y-19820484D01*
X28505587Y-19877111D01*
X28505587Y-19877112D01*
X28505588Y-19877114D01*
X28553372Y-20005226D01*
X28635313Y-20114687D01*
X28736917Y-20190746D01*
X28772170Y-20240755D01*
X28771296Y-20301934D01*
X28736917Y-20349253D01*
X28667177Y-20401460D01*
X28635313Y-20425313D01*
X28635311Y-20425315D01*
X28553373Y-20534771D01*
X28505587Y-20662887D01*
X28499500Y-20719518D01*
X28499500Y-20862650D01*
X28480593Y-20920841D01*
X28431093Y-20956805D01*
X28369907Y-20956805D01*
X28340235Y-20941194D01*
X28338013Y-20939489D01*
X28212488Y-20867017D01*
X28212489Y-20867017D01*
X28162241Y-20853553D01*
X28072475Y-20829500D01*
X27927525Y-20829500D01*
X27865790Y-20846041D01*
X27787510Y-20867017D01*
X27661989Y-20939487D01*
X27661982Y-20939493D01*
X27658091Y-20943384D01*
X27603573Y-20971158D01*
X27543142Y-20961583D01*
X27499882Y-20918320D01*
X27441235Y-20803217D01*
X27441234Y-20803215D01*
X27432965Y-20791834D01*
X27339414Y-20663072D01*
X27216928Y-20540586D01*
X27076788Y-20438768D01*
X27076787Y-20438767D01*
X27076785Y-20438766D01*
X26922441Y-20360125D01*
X26922438Y-20360123D01*
X26757706Y-20306598D01*
X26757702Y-20306597D01*
X26586614Y-20279500D01*
X26586611Y-20279500D01*
X26413389Y-20279500D01*
X26413386Y-20279500D01*
X26242297Y-20306597D01*
X26242293Y-20306598D01*
X26077561Y-20360123D01*
X26077558Y-20360125D01*
X25923214Y-20438766D01*
X25783073Y-20540585D01*
X25660585Y-20663073D01*
X25558766Y-20803214D01*
X25480125Y-20957558D01*
X25480123Y-20957561D01*
X25426598Y-21122293D01*
X25426597Y-21122297D01*
X25399500Y-21293385D01*
X25399500Y-21466614D01*
X25426597Y-21637702D01*
X25426598Y-21637706D01*
X25480123Y-21802438D01*
X25480125Y-21802441D01*
X25558765Y-21956784D01*
X25558768Y-21956788D01*
X25660586Y-22096928D01*
X25783072Y-22219414D01*
X25923212Y-22321232D01*
X26077555Y-22399873D01*
X26077557Y-22399873D01*
X26077558Y-22399874D01*
X26077561Y-22399876D01*
X26242293Y-22453401D01*
X26242297Y-22453402D01*
X26413386Y-22480500D01*
X26413389Y-22480500D01*
X26586614Y-22480500D01*
X26757702Y-22453402D01*
X26757706Y-22453401D01*
X26922438Y-22399876D01*
X26922440Y-22399874D01*
X26922445Y-22399873D01*
X27076788Y-22321232D01*
X27216928Y-22219414D01*
X27339414Y-22096928D01*
X27441232Y-21956788D01*
X27454627Y-21930500D01*
X27470538Y-21899270D01*
X27499882Y-21841678D01*
X27543146Y-21798414D01*
X27603578Y-21788842D01*
X27658095Y-21816619D01*
X27661985Y-21820509D01*
X27661987Y-21820510D01*
X27661989Y-21820512D01*
X27787511Y-21892982D01*
X27787512Y-21892982D01*
X27787515Y-21892984D01*
X27927525Y-21930500D01*
X27927526Y-21930500D01*
X28072474Y-21930500D01*
X28072475Y-21930500D01*
X28209168Y-21893872D01*
X28234789Y-21890500D01*
X28400501Y-21890500D01*
X28458692Y-21909407D01*
X28494656Y-21958907D01*
X28499501Y-21989500D01*
X28499501Y-22360484D01*
X28505587Y-22417111D01*
X28505587Y-22417112D01*
X28505588Y-22417114D01*
X28553372Y-22545226D01*
X28635313Y-22654687D01*
X28736917Y-22730746D01*
X28772170Y-22780755D01*
X28771296Y-22841934D01*
X28736917Y-22889253D01*
X28656301Y-22949602D01*
X28635313Y-22965313D01*
X28635311Y-22965315D01*
X28553373Y-23074771D01*
X28505587Y-23202887D01*
X28499500Y-23259518D01*
X28499500Y-23482650D01*
X28480593Y-23540841D01*
X28431093Y-23576805D01*
X28369907Y-23576805D01*
X28340235Y-23561194D01*
X28338013Y-23559489D01*
X28212488Y-23487017D01*
X28212489Y-23487017D01*
X28182896Y-23479087D01*
X28072475Y-23449500D01*
X27927525Y-23449500D01*
X27880855Y-23462005D01*
X27787513Y-23487016D01*
X27665142Y-23557668D01*
X27605294Y-23570389D01*
X27549398Y-23545502D01*
X27521486Y-23502520D01*
X27519873Y-23497555D01*
X27441233Y-23343214D01*
X27441232Y-23343212D01*
X27339414Y-23203072D01*
X27216928Y-23080586D01*
X27076788Y-22978768D01*
X27076787Y-22978767D01*
X27076785Y-22978766D01*
X26922441Y-22900125D01*
X26922438Y-22900123D01*
X26757706Y-22846598D01*
X26757702Y-22846597D01*
X26586614Y-22819500D01*
X26586611Y-22819500D01*
X26413389Y-22819500D01*
X26413386Y-22819500D01*
X26242297Y-22846597D01*
X26242293Y-22846598D01*
X26077561Y-22900123D01*
X26077558Y-22900125D01*
X25923214Y-22978766D01*
X25783073Y-23080585D01*
X25660585Y-23203073D01*
X25558766Y-23343214D01*
X25480125Y-23497558D01*
X25480123Y-23497561D01*
X25426598Y-23662293D01*
X25426597Y-23662297D01*
X25399500Y-23833385D01*
X25399500Y-24006614D01*
X25426597Y-24177702D01*
X25426598Y-24177706D01*
X25480123Y-24342438D01*
X25480126Y-24342445D01*
X25481818Y-24345765D01*
X25491385Y-24406198D01*
X25463609Y-24460707D01*
X25303815Y-24620503D01*
X25249299Y-24648281D01*
X25233811Y-24649500D01*
X25046144Y-24649500D01*
X24953856Y-24649500D01*
X24864712Y-24673386D01*
X24864711Y-24673386D01*
X24864709Y-24673387D01*
X24784790Y-24719529D01*
X24719529Y-24784790D01*
X24685238Y-24844183D01*
X24639768Y-24885124D01*
X24578917Y-24891518D01*
X24525930Y-24860925D01*
X24501044Y-24805029D01*
X24500502Y-24794682D01*
X24500503Y-15975327D01*
X63249500Y-15975327D01*
X63249500Y-18524672D01*
X63249501Y-18524684D01*
X63264033Y-18597736D01*
X63264035Y-18597742D01*
X63319397Y-18680599D01*
X63319399Y-18680601D01*
X63402260Y-18735966D01*
X63457808Y-18747015D01*
X63475315Y-18750498D01*
X63475320Y-18750498D01*
X63475326Y-18750500D01*
X63867915Y-18750500D01*
X63926106Y-18769407D01*
X63962070Y-18818907D01*
X63963541Y-18875124D01*
X63949500Y-18927522D01*
X63949500Y-19072474D01*
X63987017Y-19212489D01*
X64059487Y-19338010D01*
X64059489Y-19338012D01*
X64059491Y-19338015D01*
X64161985Y-19440509D01*
X64161987Y-19440510D01*
X64161989Y-19440512D01*
X64287511Y-19512982D01*
X64287512Y-19512982D01*
X64287515Y-19512984D01*
X64427525Y-19550500D01*
X64427526Y-19550500D01*
X64572474Y-19550500D01*
X64572475Y-19550500D01*
X64712485Y-19512984D01*
X64712487Y-19512982D01*
X64712489Y-19512982D01*
X64838010Y-19440512D01*
X64838010Y-19440511D01*
X64838015Y-19440509D01*
X64940509Y-19338015D01*
X65012984Y-19212485D01*
X65050500Y-19072475D01*
X65050500Y-18927525D01*
X65012984Y-18787515D01*
X65012982Y-18787512D01*
X65012982Y-18787510D01*
X64946256Y-18671938D01*
X64933534Y-18612090D01*
X64934895Y-18603122D01*
X64935967Y-18597736D01*
X64945363Y-18550500D01*
X64950499Y-18524682D01*
X64950500Y-18524672D01*
X64950500Y-15975327D01*
X66249500Y-15975327D01*
X66249500Y-18524672D01*
X66249501Y-18524684D01*
X66264033Y-18597736D01*
X66264035Y-18597742D01*
X66319397Y-18680599D01*
X66319399Y-18680601D01*
X66402260Y-18735966D01*
X66457808Y-18747015D01*
X66475315Y-18750498D01*
X66475320Y-18750498D01*
X66475326Y-18750500D01*
X67150500Y-18750500D01*
X67208691Y-18769407D01*
X67244655Y-18818907D01*
X67249500Y-18849500D01*
X67249500Y-19451806D01*
X67230593Y-19509997D01*
X67200000Y-19537542D01*
X67161989Y-19559487D01*
X67059487Y-19661989D01*
X66987017Y-19787510D01*
X66963008Y-19877112D01*
X66949500Y-19927525D01*
X66949500Y-20072475D01*
X66970224Y-20149817D01*
X66987017Y-20212489D01*
X67059487Y-20338010D01*
X67059489Y-20338012D01*
X67059491Y-20338015D01*
X67161985Y-20440509D01*
X67161987Y-20440510D01*
X67161989Y-20440512D01*
X67287511Y-20512982D01*
X67287512Y-20512982D01*
X67287515Y-20512984D01*
X67427525Y-20550500D01*
X67427526Y-20550500D01*
X67572474Y-20550500D01*
X67572475Y-20550500D01*
X67712485Y-20512984D01*
X67712487Y-20512982D01*
X67712489Y-20512982D01*
X67838010Y-20440512D01*
X67838010Y-20440511D01*
X67838015Y-20440509D01*
X67877068Y-20401456D01*
X68499500Y-20401456D01*
X68499500Y-20598543D01*
X68537949Y-20791834D01*
X68537949Y-20791836D01*
X68613367Y-20973913D01*
X68613368Y-20973914D01*
X68722861Y-21137782D01*
X68862218Y-21277139D01*
X69026086Y-21386632D01*
X69208165Y-21462051D01*
X69401459Y-21500500D01*
X69401460Y-21500500D01*
X69598540Y-21500500D01*
X69598541Y-21500500D01*
X69791835Y-21462051D01*
X69973914Y-21386632D01*
X70137782Y-21277139D01*
X70277139Y-21137782D01*
X70386632Y-20973914D01*
X70462051Y-20791835D01*
X70500500Y-20598541D01*
X70500500Y-20401459D01*
X70462051Y-20208165D01*
X70386632Y-20026086D01*
X70277139Y-19862218D01*
X70137782Y-19722861D01*
X69973914Y-19613368D01*
X69973915Y-19613368D01*
X69973913Y-19613367D01*
X69791835Y-19537949D01*
X69598543Y-19499500D01*
X69598541Y-19499500D01*
X69401459Y-19499500D01*
X69401456Y-19499500D01*
X69208165Y-19537949D01*
X69208163Y-19537949D01*
X69026086Y-19613367D01*
X68862218Y-19722861D01*
X68862214Y-19722864D01*
X68722864Y-19862214D01*
X68722861Y-19862218D01*
X68613367Y-20026086D01*
X68537949Y-20208163D01*
X68537949Y-20208165D01*
X68499500Y-20401456D01*
X67877068Y-20401456D01*
X67940509Y-20338015D01*
X67958648Y-20306597D01*
X68012982Y-20212489D01*
X68012982Y-20212487D01*
X68012984Y-20212485D01*
X68050500Y-20072475D01*
X68050500Y-19927525D01*
X68012984Y-19787515D01*
X68004535Y-19772880D01*
X67963763Y-19702260D01*
X67950500Y-19652761D01*
X67950500Y-16927525D01*
X69449500Y-16927525D01*
X69449500Y-17072474D01*
X69487017Y-17212489D01*
X69559487Y-17338010D01*
X69559489Y-17338012D01*
X69559491Y-17338015D01*
X69661985Y-17440509D01*
X69661987Y-17440510D01*
X69661989Y-17440512D01*
X69787511Y-17512982D01*
X69787512Y-17512982D01*
X69787515Y-17512984D01*
X69927525Y-17550500D01*
X69927526Y-17550500D01*
X70072476Y-17550500D01*
X70072476Y-17550499D01*
X70124876Y-17536459D01*
X70185977Y-17539660D01*
X70233528Y-17578165D01*
X70249500Y-17632085D01*
X70249500Y-18524672D01*
X70249501Y-18524684D01*
X70264033Y-18597736D01*
X70264035Y-18597742D01*
X70319397Y-18680599D01*
X70319399Y-18680601D01*
X70402260Y-18735966D01*
X70457808Y-18747015D01*
X70475315Y-18750498D01*
X70475320Y-18750498D01*
X70475326Y-18750500D01*
X70475327Y-18750500D01*
X71724673Y-18750500D01*
X71724674Y-18750500D01*
X71797740Y-18735966D01*
X71880601Y-18680601D01*
X71935966Y-18597740D01*
X71950500Y-18524674D01*
X71950500Y-15975326D01*
X71949532Y-15970462D01*
X71947015Y-15957808D01*
X71935966Y-15902260D01*
X71880601Y-15819399D01*
X71880599Y-15819397D01*
X71797742Y-15764035D01*
X71797740Y-15764034D01*
X71797737Y-15764033D01*
X71797736Y-15764033D01*
X71724684Y-15749501D01*
X71724674Y-15749500D01*
X70475326Y-15749500D01*
X70475325Y-15749500D01*
X70475315Y-15749501D01*
X70402263Y-15764033D01*
X70402257Y-15764035D01*
X70319400Y-15819397D01*
X70319397Y-15819400D01*
X70264035Y-15902257D01*
X70264033Y-15902263D01*
X70249501Y-15975315D01*
X70249500Y-15975327D01*
X70249500Y-16367914D01*
X70230593Y-16426105D01*
X70181093Y-16462069D01*
X70124877Y-16463541D01*
X70100344Y-16456967D01*
X70072475Y-16449500D01*
X69927525Y-16449500D01*
X69875124Y-16463541D01*
X69787510Y-16487017D01*
X69661989Y-16559487D01*
X69559487Y-16661989D01*
X69487017Y-16787510D01*
X69449500Y-16927525D01*
X67950500Y-16927525D01*
X67950500Y-15975327D01*
X67950498Y-15975315D01*
X67947015Y-15957808D01*
X67935966Y-15902260D01*
X67880601Y-15819399D01*
X67880599Y-15819397D01*
X67797742Y-15764035D01*
X67797740Y-15764034D01*
X67797737Y-15764033D01*
X67797736Y-15764033D01*
X67724684Y-15749501D01*
X67724674Y-15749500D01*
X66475326Y-15749500D01*
X66475325Y-15749500D01*
X66475315Y-15749501D01*
X66402263Y-15764033D01*
X66402257Y-15764035D01*
X66319400Y-15819397D01*
X66319397Y-15819400D01*
X66264035Y-15902257D01*
X66264033Y-15902263D01*
X66249501Y-15975315D01*
X66249500Y-15975327D01*
X64950500Y-15975327D01*
X64950498Y-15975315D01*
X64947015Y-15957808D01*
X64935966Y-15902260D01*
X64880601Y-15819399D01*
X64880599Y-15819397D01*
X64797742Y-15764035D01*
X64797740Y-15764034D01*
X64797737Y-15764033D01*
X64797736Y-15764033D01*
X64724684Y-15749501D01*
X64724674Y-15749500D01*
X63475326Y-15749500D01*
X63475325Y-15749500D01*
X63475315Y-15749501D01*
X63402263Y-15764033D01*
X63402257Y-15764035D01*
X63319400Y-15819397D01*
X63319397Y-15819400D01*
X63264035Y-15902257D01*
X63264033Y-15902263D01*
X63249501Y-15975315D01*
X63249500Y-15975327D01*
X24500503Y-15975327D01*
X24500503Y-15970462D01*
X24500503Y-15599500D01*
X24519410Y-15541309D01*
X24568910Y-15505345D01*
X24599503Y-15500500D01*
X74400500Y-15500500D01*
X74458691Y-15519407D01*
G37*
%TD.AperFunction*%
%TA.AperFunction,Conductor*%
G36*
X27615270Y-27221716D02*
G01*
X27654621Y-27167555D01*
X27654629Y-27167542D01*
X27703487Y-27071652D01*
X27746751Y-27028387D01*
X27807183Y-27018815D01*
X27817310Y-27020967D01*
X27927522Y-27050499D01*
X27927524Y-27050500D01*
X27927525Y-27050500D01*
X28072474Y-27050500D01*
X28072475Y-27050500D01*
X28212485Y-27012984D01*
X28263095Y-26983763D01*
X28312596Y-26970500D01*
X28400501Y-26970500D01*
X28458692Y-26989407D01*
X28494656Y-27038907D01*
X28499501Y-27069500D01*
X28499501Y-27440484D01*
X28505587Y-27497111D01*
X28505587Y-27497112D01*
X28505588Y-27497114D01*
X28553372Y-27625226D01*
X28635313Y-27734687D01*
X28726540Y-27802978D01*
X28736917Y-27810746D01*
X28772170Y-27860755D01*
X28771296Y-27921934D01*
X28736917Y-27969253D01*
X28722392Y-27980127D01*
X28635313Y-28045313D01*
X28635311Y-28045315D01*
X28553373Y-28154771D01*
X28505587Y-28282887D01*
X28499500Y-28339518D01*
X28499500Y-29980478D01*
X28499501Y-29980484D01*
X28505587Y-30037111D01*
X28505587Y-30037112D01*
X28505588Y-30037114D01*
X28553372Y-30165226D01*
X28635313Y-30274687D01*
X28732546Y-30347474D01*
X28736917Y-30350746D01*
X28772170Y-30400755D01*
X28771296Y-30461934D01*
X28736917Y-30509253D01*
X28697393Y-30538841D01*
X28635313Y-30585313D01*
X28635311Y-30585315D01*
X28553373Y-30694771D01*
X28505587Y-30822887D01*
X28499500Y-30879518D01*
X28499500Y-31250500D01*
X28480593Y-31308691D01*
X28431093Y-31344655D01*
X28400500Y-31349500D01*
X27667164Y-31349500D01*
X27608973Y-31330593D01*
X27573011Y-31281095D01*
X27519873Y-31117555D01*
X27441232Y-30963212D01*
X27339414Y-30823072D01*
X27216928Y-30700586D01*
X27076788Y-30598768D01*
X27076787Y-30598767D01*
X27076785Y-30598766D01*
X26922441Y-30520125D01*
X26922438Y-30520123D01*
X26757706Y-30466598D01*
X26757702Y-30466597D01*
X26586614Y-30439500D01*
X26586611Y-30439500D01*
X26413389Y-30439500D01*
X26413386Y-30439500D01*
X26242297Y-30466597D01*
X26242293Y-30466598D01*
X26077561Y-30520123D01*
X26077558Y-30520125D01*
X25923214Y-30598766D01*
X25783073Y-30700585D01*
X25660585Y-30823073D01*
X25558766Y-30963214D01*
X25537710Y-31004541D01*
X25494445Y-31047805D01*
X25434013Y-31057377D01*
X25379497Y-31029600D01*
X25351719Y-30975083D01*
X25350500Y-30959596D01*
X25350500Y-29580403D01*
X25369407Y-29522212D01*
X25418907Y-29486248D01*
X25480093Y-29486248D01*
X25529593Y-29522212D01*
X25537710Y-29535459D01*
X25558765Y-29576783D01*
X25558765Y-29576784D01*
X25561394Y-29580403D01*
X25660586Y-29716928D01*
X25783072Y-29839414D01*
X25923212Y-29941232D01*
X26077555Y-30019873D01*
X26077557Y-30019873D01*
X26077558Y-30019874D01*
X26077561Y-30019876D01*
X26242293Y-30073401D01*
X26242297Y-30073402D01*
X26413386Y-30100500D01*
X26413389Y-30100500D01*
X26586614Y-30100500D01*
X26757702Y-30073402D01*
X26757706Y-30073401D01*
X26922438Y-30019876D01*
X26922440Y-30019874D01*
X26922445Y-30019873D01*
X27076788Y-29941232D01*
X27216928Y-29839414D01*
X27339414Y-29716928D01*
X27441232Y-29576788D01*
X27519873Y-29422445D01*
X27519874Y-29422440D01*
X27519876Y-29422438D01*
X27573401Y-29257706D01*
X27573402Y-29257702D01*
X27600500Y-29086614D01*
X27600500Y-28913385D01*
X27573402Y-28742297D01*
X27573401Y-28742293D01*
X27519876Y-28577561D01*
X27519874Y-28577558D01*
X27519873Y-28577557D01*
X27519873Y-28577555D01*
X27441232Y-28423212D01*
X27339414Y-28283072D01*
X27216928Y-28160586D01*
X27076788Y-28058768D01*
X27076787Y-28058767D01*
X27076785Y-28058766D01*
X26922441Y-27980125D01*
X26846111Y-27955323D01*
X26796612Y-27919359D01*
X26777705Y-27861168D01*
X26796613Y-27802977D01*
X26846113Y-27767014D01*
X27018213Y-27711096D01*
X27207556Y-27614620D01*
X27261716Y-27575270D01*
X26629408Y-26942962D01*
X26692993Y-26925925D01*
X26807007Y-26860099D01*
X26900099Y-26767007D01*
X26965925Y-26652993D01*
X26982962Y-26589408D01*
X27615270Y-27221716D01*
G37*
%TD.AperFunction*%
%TA.AperFunction,Conductor*%
G36*
X26034075Y-26652993D02*
G01*
X26099901Y-26767007D01*
X26192993Y-26860099D01*
X26307007Y-26925925D01*
X26370589Y-26942962D01*
X25738282Y-27575269D01*
X25738282Y-27575270D01*
X25792440Y-27614619D01*
X25792446Y-27614623D01*
X25981786Y-27711096D01*
X26153886Y-27767014D01*
X26203386Y-27802978D01*
X26222294Y-27861169D01*
X26203387Y-27919359D01*
X26153888Y-27955323D01*
X26077558Y-27980125D01*
X25923214Y-28058766D01*
X25783073Y-28160585D01*
X25660585Y-28283073D01*
X25558766Y-28423214D01*
X25537710Y-28464541D01*
X25494445Y-28507805D01*
X25434013Y-28517377D01*
X25379497Y-28489600D01*
X25351719Y-28435083D01*
X25350500Y-28419596D01*
X25350500Y-27296953D01*
X25369407Y-27238762D01*
X25379496Y-27226949D01*
X26017037Y-26589407D01*
X26034075Y-26652993D01*
G37*
%TD.AperFunction*%
%TA.AperFunction,Conductor*%
G36*
X25709772Y-25316410D02*
G01*
X25713533Y-25319979D01*
X26370591Y-25977037D01*
X26307007Y-25994075D01*
X26192993Y-26059901D01*
X26099901Y-26152993D01*
X26034075Y-26267007D01*
X26017037Y-26330590D01*
X25379496Y-25693048D01*
X25375870Y-25685931D01*
X25369407Y-25681236D01*
X25362242Y-25659186D01*
X25351719Y-25638532D01*
X25350500Y-25623045D01*
X25350500Y-25449500D01*
X25369407Y-25391309D01*
X25418907Y-25355345D01*
X25449500Y-25350500D01*
X25466142Y-25350500D01*
X25466144Y-25350500D01*
X25555288Y-25326614D01*
X25559102Y-25324412D01*
X25594030Y-25304246D01*
X25653875Y-25291525D01*
X25709772Y-25316410D01*
G37*
%TD.AperFunction*%
%TA.AperFunction,Conductor*%
G36*
X27604352Y-24395991D02*
G01*
X27631089Y-24409613D01*
X27661985Y-24440509D01*
X27661987Y-24440510D01*
X27661989Y-24440512D01*
X27787511Y-24512982D01*
X27787512Y-24512982D01*
X27787515Y-24512984D01*
X27927525Y-24550500D01*
X27927526Y-24550500D01*
X28072474Y-24550500D01*
X28072475Y-24550500D01*
X28212485Y-24512984D01*
X28212487Y-24512982D01*
X28212489Y-24512982D01*
X28332378Y-24443764D01*
X28381878Y-24430500D01*
X28400501Y-24430500D01*
X28458692Y-24449407D01*
X28494656Y-24498907D01*
X28499501Y-24529500D01*
X28499501Y-24900484D01*
X28505587Y-24957111D01*
X28505587Y-24957112D01*
X28505588Y-24957114D01*
X28553372Y-25085226D01*
X28635313Y-25194687D01*
X28727041Y-25263353D01*
X28736917Y-25270746D01*
X28772170Y-25320755D01*
X28771296Y-25381934D01*
X28736917Y-25429253D01*
X28643499Y-25499185D01*
X28635313Y-25505313D01*
X28635311Y-25505315D01*
X28553373Y-25614771D01*
X28505587Y-25742887D01*
X28499500Y-25799518D01*
X28499500Y-25982650D01*
X28480593Y-26040841D01*
X28431093Y-26076805D01*
X28369907Y-26076805D01*
X28340235Y-26061194D01*
X28338013Y-26059489D01*
X28212488Y-25987017D01*
X28212489Y-25987017D01*
X28143950Y-25968652D01*
X28072475Y-25949500D01*
X27927525Y-25949500D01*
X27911265Y-25953857D01*
X27853186Y-25969419D01*
X27792084Y-25966216D01*
X27744534Y-25927711D01*
X27739353Y-25918737D01*
X27654623Y-25752446D01*
X27654619Y-25752440D01*
X27615270Y-25698282D01*
X27615269Y-25698282D01*
X26982962Y-26330589D01*
X26965925Y-26267007D01*
X26900099Y-26152993D01*
X26807007Y-26059901D01*
X26692993Y-25994075D01*
X26629407Y-25977036D01*
X27261716Y-25344729D01*
X27261716Y-25344728D01*
X27207559Y-25305380D01*
X27207553Y-25305376D01*
X27018215Y-25208904D01*
X26846112Y-25152985D01*
X26796612Y-25117021D01*
X26777705Y-25058830D01*
X26796612Y-25000639D01*
X26846111Y-24964675D01*
X26922445Y-24939873D01*
X27076788Y-24861232D01*
X27216928Y-24759414D01*
X27339414Y-24636928D01*
X27441232Y-24496788D01*
X27472880Y-24434673D01*
X27516144Y-24391410D01*
X27567004Y-24383354D01*
X27576575Y-24381839D01*
X27576576Y-24381839D01*
X27604352Y-24395991D01*
G37*
%TD.AperFunction*%
%TD*%
M02*
