%TF.GenerationSoftware,KiCad,Pcbnew,10.0.3*%
%TF.CreationDate,2026-06-20T10:20:26+02:00*%
%TF.ProjectId,esp32audio,65737033-3261-4756-9469-6f2e6b696361,rev?*%
%TF.SameCoordinates,Original*%
%TF.FileFunction,Soldermask,Bot*%
%TF.FilePolarity,Negative*%
%FSLAX46Y46*%
G04 Gerber Fmt 4.6, Leading zero omitted, Abs format (unit mm)*
G04 Created by KiCad (PCBNEW 10.0.3) date 2026-06-20 10:20:26*
%MOMM*%
%LPD*%
G01*
G04 APERTURE LIST*
G04 Aperture macros list*
%AMRoundRect*
0 Rectangle with rounded corners*
0 $1 Rounding radius*
0 $2 $3 $4 $5 $6 $7 $8 $9 X,Y pos of 4 corners*
0 Add a 4 corners polygon primitive as box body*
4,1,4,$2,$3,$4,$5,$6,$7,$8,$9,$2,$3,0*
0 Add four circle primitives for the rounded corners*
1,1,$1+$1,$2,$3*
1,1,$1+$1,$4,$5*
1,1,$1+$1,$6,$7*
1,1,$1+$1,$8,$9*
0 Add four rect primitives between the rounded corners*
20,1,$1+$1,$2,$3,$4,$5,0*
20,1,$1+$1,$4,$5,$6,$7,0*
20,1,$1+$1,$6,$7,$8,$9,0*
20,1,$1+$1,$8,$9,$2,$3,0*%
G04 Aperture macros list end*
%ADD10RoundRect,0.250000X0.625000X-0.350000X0.625000X0.350000X-0.625000X0.350000X-0.625000X-0.350000X0*%
%ADD11O,1.750000X1.200000*%
%ADD12R,1.700000X1.700000*%
%ADD13C,1.700000*%
%ADD14RoundRect,0.250000X-0.625000X0.350000X-0.625000X-0.350000X0.625000X-0.350000X0.625000X0.350000X0*%
%ADD15RoundRect,0.250000X0.350000X0.625000X-0.350000X0.625000X-0.350000X-0.625000X0.350000X-0.625000X0*%
%ADD16O,1.200000X1.750000*%
%ADD17C,1.500000*%
%ADD18RoundRect,0.250000X1.000000X0.650000X-1.000000X0.650000X-1.000000X-0.650000X1.000000X-0.650000X0*%
%ADD19RoundRect,0.140000X0.140000X0.170000X-0.140000X0.170000X-0.140000X-0.170000X0.140000X-0.170000X0*%
%ADD20RoundRect,0.140000X-0.140000X-0.170000X0.140000X-0.170000X0.140000X0.170000X-0.140000X0.170000X0*%
%ADD21C,2.000000*%
%ADD22RoundRect,0.200000X-0.275000X0.200000X-0.275000X-0.200000X0.275000X-0.200000X0.275000X0.200000X0*%
%ADD23RoundRect,0.135000X-0.185000X0.135000X-0.185000X-0.135000X0.185000X-0.135000X0.185000X0.135000X0*%
%ADD24RoundRect,0.250000X0.250000X0.475000X-0.250000X0.475000X-0.250000X-0.475000X0.250000X-0.475000X0*%
%ADD25RoundRect,0.250000X-0.250000X-0.475000X0.250000X-0.475000X0.250000X0.475000X-0.250000X0.475000X0*%
%ADD26RoundRect,0.135000X0.185000X-0.135000X0.185000X0.135000X-0.185000X0.135000X-0.185000X-0.135000X0*%
%ADD27R,0.800000X2.700000*%
%ADD28RoundRect,0.087500X-0.087500X0.250000X-0.087500X-0.250000X0.087500X-0.250000X0.087500X0.250000X0*%
%ADD29RoundRect,0.250000X0.550000X-1.500000X0.550000X1.500000X-0.550000X1.500000X-0.550000X-1.500000X0*%
%ADD30RoundRect,0.140000X0.170000X-0.140000X0.170000X0.140000X-0.170000X0.140000X-0.170000X-0.140000X0*%
%ADD31RoundRect,0.150000X-0.825000X-0.150000X0.825000X-0.150000X0.825000X0.150000X-0.825000X0.150000X0*%
%ADD32C,0.600000*%
%ADD33R,2.184000X4.115000*%
%ADD34RoundRect,0.250000X1.500000X0.550000X-1.500000X0.550000X-1.500000X-0.550000X1.500000X-0.550000X0*%
%ADD35RoundRect,0.225000X0.225000X0.250000X-0.225000X0.250000X-0.225000X-0.250000X0.225000X-0.250000X0*%
%ADD36RoundRect,0.225000X-0.225000X-0.250000X0.225000X-0.250000X0.225000X0.250000X-0.225000X0.250000X0*%
%ADD37R,0.700000X1.750000*%
%ADD38R,1.450000X1.000000*%
%ADD39R,1.000000X1.550000*%
%ADD40R,0.800000X1.500000*%
%ADD41R,1.300000X1.500000*%
%ADD42R,1.500000X1.500000*%
%ADD43R,0.800000X1.400000*%
%ADD44RoundRect,0.075000X-0.650000X-0.075000X0.650000X-0.075000X0.650000X0.075000X-0.650000X0.075000X0*%
G04 APERTURE END LIST*
D10*
%TO.C,J3*%
X70450000Y-42000000D03*
D11*
X70450000Y-40000000D03*
%TD*%
D12*
%TO.C,J6*%
X26500000Y-18840000D03*
D13*
X26500000Y-21380000D03*
X26500000Y-23920000D03*
X26500000Y-26460000D03*
X26500000Y-29000000D03*
X26500000Y-31540000D03*
%TD*%
D14*
%TO.C,J2*%
X71500000Y-32500000D03*
D11*
X71500000Y-34500000D03*
%TD*%
D15*
%TO.C,GND 5V*%
X45000000Y-42050000D03*
D16*
X43000000Y-42050000D03*
%TD*%
D15*
%TO.C,GND BAT+*%
X38000000Y-42050000D03*
D16*
X36000000Y-42050000D03*
%TD*%
D17*
%TO.C,J1*%
X62500000Y-20500000D03*
X69500000Y-20500000D03*
%TD*%
D18*
%TO.C,D1*%
X31500000Y-42500000D03*
X27500000Y-42500000D03*
%TD*%
D19*
%TO.C,C9*%
X49130000Y-26830000D03*
X48170000Y-26830000D03*
%TD*%
D20*
%TO.C,C5*%
X49040000Y-33000000D03*
X50000000Y-33000000D03*
%TD*%
D21*
%TO.C,FID2*%
X73000000Y-20000000D03*
%TD*%
D22*
%TO.C,R4*%
X64500000Y-24200000D03*
X64500000Y-25850000D03*
%TD*%
D23*
%TO.C,R2*%
X72000000Y-37490000D03*
X72000000Y-38510000D03*
%TD*%
D24*
%TO.C,C17*%
X31950000Y-35500000D03*
X30050000Y-35500000D03*
%TD*%
D21*
%TO.C,FID3*%
X73000000Y-43000000D03*
%TD*%
D25*
%TO.C,C4*%
X54585000Y-34500000D03*
X56485000Y-34500000D03*
%TD*%
D22*
%TO.C,R3*%
X55127038Y-24025000D03*
X55127038Y-25675000D03*
%TD*%
D26*
%TO.C,R9*%
X31000000Y-33000000D03*
X31000000Y-31980000D03*
%TD*%
D19*
%TO.C,C10*%
X49130000Y-17830000D03*
X48170000Y-17830000D03*
%TD*%
D27*
%TO.C,L1*%
X32100000Y-38500000D03*
X29900000Y-38500000D03*
%TD*%
D28*
%TO.C,U4*%
X32500000Y-31787500D03*
X33000000Y-31787500D03*
X33500000Y-31787500D03*
X33500000Y-33212500D03*
X33000000Y-33212500D03*
X32500000Y-33212500D03*
%TD*%
D29*
%TO.C,C13*%
X59627038Y-29458874D03*
X59627038Y-23858874D03*
%TD*%
D26*
%TO.C,R13*%
X39755000Y-30510000D03*
X39755000Y-29490000D03*
%TD*%
D23*
%TO.C,R10*%
X30000000Y-31990000D03*
X30000000Y-33010000D03*
%TD*%
D30*
%TO.C,C15*%
X59470000Y-33970000D03*
X59470000Y-33010000D03*
%TD*%
D31*
%TO.C,U3*%
X63025000Y-41945000D03*
X63025000Y-40675000D03*
X63025000Y-39405000D03*
X63025000Y-38135000D03*
X63025000Y-36865000D03*
X63025000Y-35595000D03*
X63025000Y-34325000D03*
X63025000Y-33055000D03*
X67975000Y-33055000D03*
X67975000Y-34325000D03*
X67975000Y-35595000D03*
X67975000Y-36865000D03*
X67975000Y-38135000D03*
X67975000Y-39405000D03*
X67975000Y-40675000D03*
X67975000Y-41945000D03*
D32*
X65000000Y-36300000D03*
X65000000Y-37500000D03*
X65000000Y-38700000D03*
D33*
X65500000Y-37500000D03*
D32*
X66000000Y-36300000D03*
X66000000Y-37500000D03*
X66000000Y-38700000D03*
%TD*%
D24*
%TO.C,C16*%
X31950000Y-29500000D03*
X30050000Y-29500000D03*
%TD*%
D30*
%TO.C,C2*%
X56500000Y-38283704D03*
X56500000Y-37323704D03*
%TD*%
D34*
%TO.C,C11*%
X51430000Y-22330000D03*
X45830000Y-22330000D03*
%TD*%
D25*
%TO.C,C7*%
X58050000Y-35500000D03*
X59950000Y-35500000D03*
%TD*%
D26*
%TO.C,R12*%
X35755000Y-30310000D03*
X35755000Y-29290000D03*
%TD*%
D30*
%TO.C,C3*%
X54897968Y-38283704D03*
X54897968Y-37323704D03*
%TD*%
D26*
%TO.C,R8*%
X61000000Y-34010000D03*
X61000000Y-32990000D03*
%TD*%
D35*
%TO.C,C12*%
X60006022Y-37518523D03*
X58456022Y-37518523D03*
%TD*%
D26*
%TO.C,R1*%
X70500000Y-38510000D03*
X70500000Y-37490000D03*
%TD*%
D36*
%TO.C,C6*%
X49225000Y-34500000D03*
X50775000Y-34500000D03*
%TD*%
D25*
%TO.C,C8*%
X58050000Y-39500000D03*
X59950000Y-39500000D03*
%TD*%
D23*
%TO.C,R7*%
X57970000Y-32970000D03*
X57970000Y-33990000D03*
%TD*%
D37*
%TO.C,J7*%
X33305000Y-27300000D03*
X34405000Y-27300000D03*
X35505000Y-27300000D03*
X36605000Y-27300000D03*
X37705000Y-27300000D03*
X38805000Y-27300000D03*
X39905000Y-27300000D03*
X41005000Y-27300000D03*
D38*
X42130000Y-18075000D03*
D39*
X30905000Y-16500000D03*
D40*
X42455000Y-19575000D03*
D41*
X42205000Y-27175000D03*
D42*
X30855000Y-27175000D03*
D43*
X30505000Y-18925000D03*
%TD*%
D21*
%TO.C,FID1*%
X26500000Y-37000000D03*
%TD*%
D44*
%TO.C,U2*%
X48885000Y-38500000D03*
X48885000Y-38000000D03*
X48885000Y-37500000D03*
X48885000Y-37000000D03*
X48885000Y-36500000D03*
X53185000Y-36500000D03*
X53185000Y-37000000D03*
X53185000Y-37500000D03*
X53185000Y-38000000D03*
X53185000Y-38500000D03*
%TD*%
D29*
%TO.C,C14*%
X69000000Y-29525000D03*
X69000000Y-23925000D03*
%TD*%
D26*
%TO.C,R11*%
X34755000Y-30310000D03*
X34755000Y-29290000D03*
%TD*%
M02*
